<svg width="40" height="41" viewBox="0 0 40 41" fill="none" xmlns="http://www.w3.org/2000/svg">
<g clip-path="url(#clip0_15046_12105)">
<path fill-rule="evenodd" clip-rule="evenodd" d="M9.37502 11.4508V18.7871H30.625V11.4508C30.625 10.4979 29.8634 9.72461 28.925 9.72461H11.075C10.1366 9.72461 9.37502 10.4979 9.37502 11.4508ZM9.02246 23.7871V29.1443C9.02246 30.3271 9.80934 31.2871 10.7789 31.2871H29.2213C30.1908 31.2871 30.9777 30.3271 30.9777 29.1443V23.7871H9.02246Z" fill="#66BB6A"/>
<path fill-rule="evenodd" clip-rule="evenodd" d="M39.1667 12.1198C38.7067 12.1198 38.3334 11.7465 38.3334 11.2865V4.61979C38.3334 3.24146 37.2117 2.11979 35.8334 2.11979H29.1667C28.7067 2.11979 28.3334 1.74646 28.3334 1.28646C28.3334 0.826458 28.7067 0.453125 29.1667 0.453125H35.8334C38.13 0.453125 40 2.32146 40 4.61979V11.2865C40 11.7465 39.6267 12.1198 39.1667 12.1198ZM35.8334 40.4529H29.1667C28.7067 40.4529 28.3334 40.0796 28.3334 39.6196C28.3334 39.1596 28.7067 38.7863 29.1667 38.7863H35.8334C37.2117 38.7863 38.3334 37.6646 38.3334 36.2863V29.6196C38.3334 29.1596 38.7067 28.7863 39.1667 28.7863C39.6267 28.7863 40 29.1596 40 29.6196V36.2863C40 38.5846 38.13 40.4529 35.8334 40.4529ZM4.16667 40.4529H10.8333C11.2933 40.4529 11.6667 40.0796 11.6667 39.6196C11.6667 39.1596 11.2933 38.7863 10.8333 38.7863H4.16667C2.78833 38.7863 1.66667 37.6646 1.66667 36.2863V29.6196C1.66667 29.1596 1.29333 28.7863 0.833333 28.7863C0.373333 28.7863 0 29.1596 0 29.6196V36.2863C0 38.5846 1.87 40.4529 4.16667 40.4529ZM0.833333 12.1198C0.373333 12.1198 0 11.7465 0 11.2865V4.61979C0 2.32146 1.87 0.453125 4.16667 0.453125H10.8333C11.2933 0.453125 11.6667 0.826458 11.6667 1.28646C11.6667 1.74646 11.2933 2.11979 10.8333 2.11979H4.16667C2.78833 2.11979 1.66667 3.24146 1.66667 4.61979V11.2865C1.66667 11.7465 1.29333 12.1198 0.833333 12.1198ZM10.8334 32.1196H29.1667C30.545 32.1196 31.6667 30.9979 31.6667 29.6196V25.4529H34.1667C34.6267 25.4529 35 25.0796 35 24.6196C35 24.1596 34.6267 23.7863 34.1667 23.7863H30.8334H9.16669H5.83333C5.37333 23.7863 5 24.1596 5 24.6196C5 25.0796 5.37333 25.4529 5.83333 25.4529H8.33336V29.6196C8.33336 30.9979 9.45503 32.1196 10.8334 32.1196ZM10 25.4529V29.6196C10 30.0779 10.3734 30.4529 10.8334 30.4529H29.1667C29.6267 30.4529 30 30.0779 30 29.6196V25.4529H10ZM30.8334 18.7863C30.3734 18.7863 30 18.4129 30 17.9529V11.2863C30 10.8279 29.6267 10.4529 29.1667 10.4529H10.8334C10.3734 10.4529 10 10.8279 10 11.2863V17.9529C10 18.4129 9.62669 18.7863 9.16669 18.7863C8.70669 18.7863 8.33336 18.4129 8.33336 17.9529V11.2863C8.33336 9.90792 9.45503 8.78625 10.8334 8.78625H29.1667C30.545 8.78625 31.6667 9.90792 31.6667 11.2863V17.9529C31.6667 18.4129 31.2934 18.7863 30.8334 18.7863Z" fill="#146D18"/>
</g>
<defs>
<clipPath id="clip0_15046_12105">
<rect width="40" height="40" fill="white" transform="translate(0 0.453125)"/>
</clipPath>
</defs>
</svg>
