<svg width="48" height="48" viewBox="0 0 48 48" fill="none" xmlns="http://www.w3.org/2000/svg">
<rect x="0.5" y="0.5" width="47" height="47" rx="23.5" fill="url(#paint0_radial_15046_10635)"/>
<rect x="0.5" y="0.5" width="47" height="47" rx="23.5" stroke="url(#paint1_radial_15046_10635)"/>
<path d="M32.1632 27.2728C31.7551 27.2728 31.3469 27.5796 31.3469 28.091V30.1364C31.3469 30.8523 30.7346 31.3637 30.1224 31.3637H28.0816C27.6734 31.3637 27.2653 31.6705 27.2653 32.1819C27.2653 32.6932 27.5714 33.0001 28.0816 33.0001H30.1224C31.653 33.0001 32.9795 31.7728 32.9795 30.1364V28.091C32.9795 27.6819 32.5714 27.2728 32.1632 27.2728Z" fill="#141414"/>
<path d="M28.0816 16.6364H30.1224C30.8367 16.6364 31.3469 17.2501 31.3469 17.8637V19.9092C31.3469 20.3182 31.6531 20.7273 32.1633 20.7273C32.6735 20.7273 32.9796 20.4205 32.9796 19.9092V17.8637C32.9796 16.3296 31.7551 15.0001 30.1224 15.0001H28.0816C27.6735 15.0001 27.2653 15.3069 27.2653 15.8182C27.2653 16.3296 27.6735 16.6364 28.0816 16.6364Z" fill="#141414"/>
<path d="M19.9183 31.3637H17.8775C17.1632 31.3637 16.653 30.7501 16.653 30.1364V28.091C16.653 27.6819 16.3469 27.2728 15.8367 27.2728C15.3265 27.2728 15.0204 27.6819 15.0204 28.091V30.1364C15.0204 31.6705 16.2449 33.0001 17.8775 33.0001H19.9183C20.3265 33.0001 20.7347 32.6932 20.7347 32.1819C20.7347 31.6705 20.3265 31.3637 19.9183 31.3637Z" fill="#141414"/>
<path d="M15.8367 20.7273C16.2449 20.7273 16.6531 20.4205 16.6531 19.9092V17.8637C16.6531 17.1478 17.2653 16.6364 17.8776 16.6364H19.9184C20.3265 16.6364 20.7347 16.3296 20.7347 15.8182C20.7347 15.3069 20.3265 15.0001 19.9184 15.0001H17.8776C16.3469 15.0001 15.0204 16.3296 15.0204 17.8637V19.9092C15.0204 20.3182 15.4286 20.7273 15.8367 20.7273Z" fill="#141414"/>
<path d="M28.0816 30.1364C29.2041 30.1364 30.1225 29.216 30.1225 28.091V26.2501H17.8776V28.091C17.8776 29.216 18.7959 30.1364 19.9184 30.1364H28.0816Z" fill="#141414"/>
<path d="M33.1837 23.1819H30.1225V19.9092C30.1225 18.7842 29.2041 17.8638 28.0816 17.8638H19.9184C18.7959 17.8638 17.8776 18.7842 17.8776 19.9092V23.3865H14.8163C14.4082 23.3865 14 23.6933 14 24.2047C14 24.716 14.3061 25.0228 14.8163 25.0228H33.1837C33.5918 25.0228 34 24.716 34 24.2047C34 23.6933 33.5918 23.1819 33.1837 23.1819Z" fill="#141414"/>
<defs>
<radialGradient id="paint0_radial_15046_10635" cx="0" cy="0" r="1" gradientUnits="userSpaceOnUse" gradientTransform="translate(24) rotate(90) scale(48 17.4545)">
<stop stop-color="#FFBF62"/>
<stop offset="1" stop-color="#FFA726"/>
</radialGradient>
<radialGradient id="paint1_radial_15046_10635" cx="0" cy="0" r="1" gradientUnits="userSpaceOnUse" gradientTransform="translate(24) rotate(90) scale(48)">
<stop stop-color="#FFA726"/>
<stop offset="1" stop-color="#98671E"/>
</radialGradient>
</defs>
</svg>
