<svg width="24" height="24" viewBox="0 0 24 24" fill="none" xmlns="http://www.w3.org/2000/svg">
<path d="M21.4608 10.699C21.4603 10.6986 21.4598 10.6981 21.4594 10.6977L13.301 2.53955C12.9532 2.19165 12.4909 2 11.9991 2C11.5073 2 11.045 2.1915 10.6971 2.5394L2.54291 10.6934C2.54017 10.6961 2.53742 10.699 2.53467 10.7018C1.82056 11.42 1.82178 12.5853 2.53818 13.3017C2.86548 13.6292 3.29777 13.8188 3.75995 13.8387C3.77872 13.8405 3.79764 13.8414 3.81672 13.8414H4.14188V19.8453C4.14188 21.0334 5.10853 22 6.29688 22H9.48871C9.8122 22 10.0746 21.7377 10.0746 21.4141V16.707C10.0746 16.1649 10.5156 15.7239 11.0578 15.7239H12.9404C13.4825 15.7239 13.9235 16.1649 13.9235 16.707V21.4141C13.9235 21.7377 14.1858 22 14.5095 22H17.7013C18.8897 22 19.8563 21.0334 19.8563 19.8453V13.8414H20.1578C20.6494 13.8414 21.1118 13.6499 21.4598 13.302C22.177 12.5844 22.1773 11.4171 21.4608 10.699Z" fill="url(#paint0_linear_40001013_1081)"/>
<defs>
<linearGradient id="paint0_linear_40001013_1081" x1="11.999" y1="2" x2="11.999" y2="22" gradientUnits="userSpaceOnUse">
<stop stop-color="#FFA726"/>
<stop offset="1" stop-color="#BD7E21"/>
</linearGradient>
</defs>
</svg>
