<svg width="168" height="56" viewBox="0 0 168 56" fill="none" xmlns="http://www.w3.org/2000/svg">
<path d="M153.639 39.5465C153.315 39.5465 152.958 39.4994 152.574 39.4098C152.189 39.2872 151.819 39.1222 151.462 38.91C151.106 38.6696 150.781 38.3678 150.485 38.0048L142.397 26.6894L147.46 21.9794C147.965 21.555 148.451 21.2108 148.928 20.9374C149.433 20.6356 149.938 20.4093 150.439 20.2585C150.943 20.1076 151.43 20.0322 151.907 20.0322H151.953V18.085H141.948V20.0322H142.346C142.791 20.0322 143.236 20.0604 143.68 20.1217C144.153 20.183 144.556 20.2726 144.88 20.3952C145.204 20.5178 145.371 20.6969 145.371 20.9374L136.746 28.9478V29.5371L143.551 39.0892C143.551 39.1788 143.416 39.2684 143.152 39.3627C142.916 39.424 142.62 39.4664 142.263 39.4994C141.906 39.5277 141.596 39.5465 141.327 39.5465H141.239V41.4937H153.737V39.5465H153.649H153.639Z" fill="#FFA726"/>
<path d="M137.233 39.4993C136.876 39.471 136.566 39.4097 136.297 39.3201C136.061 39.2306 135.94 39.108 135.94 38.9571V18.0896H126.426V20.0792L126.871 20.1688C127.436 20.2584 127.88 20.3668 128.205 20.4847C128.561 20.6073 128.812 20.7723 128.96 20.9845C129.136 21.1636 129.228 21.4371 129.228 21.8001V38.1415C129.228 38.5045 129.108 38.7921 128.872 38.9995C128.636 39.2117 128.307 39.3626 127.894 39.4522C127.478 39.5135 127.019 39.5417 126.514 39.5417H126.468V41.4889H138.428V39.5417H138.381C137.997 39.5417 137.612 39.5276 137.223 39.4946L137.233 39.4993Z" fill="#FFA726"/>
<path d="M126.245 39.4994C125.74 39.4711 125.296 39.4098 124.911 39.3202C124.527 39.2306 124.23 39.0939 124.022 38.9148C123.814 38.7026 123.712 38.415 123.712 38.0567V25.4306C123.712 24.0727 123.475 22.9129 122.998 21.9463C122.526 20.9515 121.859 20.1359 120.997 19.5041C120.136 18.8723 119.117 18.4008 117.931 18.0991C116.745 17.7974 115.457 17.6465 114.063 17.6465C112.433 17.6465 110.997 17.8256 109.751 18.1887C108.537 18.5187 107.513 18.9148 106.684 19.3674C105.855 19.7917 105.216 20.1689 104.771 20.4989V25.2042H110.061V20.895C110.121 20.8525 110.177 20.8101 110.237 20.7677C111.066 20.2537 112.09 19.9991 113.303 19.9991C114.165 19.9991 114.874 20.15 115.439 20.4518C116.004 20.7252 116.416 21.1778 116.685 21.8096C116.953 22.4414 117.083 23.29 117.083 24.3462V27.6606C115.105 27.9294 113.322 28.2453 111.747 28.5989C109.88 29.0232 108.31 29.5654 107.032 30.2302C105.758 30.862 104.794 31.6352 104.141 32.5404C103.521 33.4456 103.206 34.53 103.206 35.7983C103.206 37.0666 103.502 38.2123 104.095 39.1458C104.716 40.051 105.563 40.7441 106.629 41.2297C107.726 41.7106 108.986 41.9558 110.408 41.9558C111.83 41.9558 112.975 41.7295 114.012 41.2768C115.05 40.7959 115.925 40.117 116.634 39.2401C116.986 38.8252 117.296 38.3678 117.57 37.8775V41.5032H126.417V39.5135H126.241L126.245 39.4994ZM116.555 36.878C116.083 37.6041 115.518 38.1745 114.864 38.5989C114.244 38.9902 113.53 39.1882 112.729 39.1882C112.108 39.1882 111.543 39.0515 111.038 38.7827C110.566 38.481 110.195 38.0567 109.927 37.5145C109.69 36.9723 109.57 36.2934 109.57 35.4777C109.57 34.7846 109.672 34.1481 109.88 33.5777C110.089 33.0072 110.413 32.5074 110.858 32.0831C111.302 31.6305 111.867 31.2391 112.548 30.9044C113.229 30.5744 114.045 30.3009 114.994 30.0887C115.633 29.9237 116.333 29.7917 117.083 29.6833V36.0105C116.916 36.3122 116.74 36.6045 116.55 36.878H116.555Z" fill="#FFA726"/>
<path d="M102.548 17.8208C102.279 17.7595 101.969 17.7312 101.612 17.7312C100.426 17.7312 99.3888 18.0801 98.4994 18.7732C97.6101 19.4379 96.8551 20.3715 96.2298 21.5784C95.8082 22.3705 95.4284 23.2569 95.0717 24.214V18.0942H86.0022V20.0839L86.4469 20.1734C86.9796 20.296 87.4242 20.4139 87.7809 20.5365C88.1376 20.6591 88.3877 20.8241 88.5359 21.0362C88.7119 21.2154 88.8046 21.4889 88.8046 21.8519V38.1461C88.8046 38.7213 88.5359 39.0985 88.0032 39.2776C87.4984 39.4568 86.8638 39.5511 86.0902 39.5511H86.0022V41.4983H99.1201V39.5511H98.4531C98.0362 39.5511 97.5916 39.537 97.1191 39.504C96.6744 39.4757 96.29 39.4144 95.9611 39.3248C95.6646 39.2022 95.5164 39.0513 95.5164 38.8722V26.0622C95.6044 25.9349 95.6924 25.8123 95.7851 25.6991C96.1695 25.1852 96.6003 24.7656 97.0728 24.4309C97.5777 24.1008 98.1104 23.8557 98.6755 23.7048C99.2406 23.5539 99.8613 23.4785 100.542 23.4785C100.866 23.4785 101.195 23.4926 101.52 23.5256C101.844 23.5539 102.14 23.6011 102.409 23.6624C102.705 23.7237 102.974 23.7849 103.21 23.8415V17.9575C103.062 17.8962 102.84 17.8538 102.543 17.8208H102.548Z" fill="#FFA726"/>
<path d="M68.368 39.4993C67.8353 39.471 67.3767 39.4097 66.9877 39.3202C66.5986 39.2306 66.3067 39.0938 66.0983 38.9147C65.8899 38.7025 65.788 38.4149 65.788 38.0566V18.0896H55.6484V20.0792L56.4498 20.216C57.2789 20.3055 57.9181 20.4706 58.3628 20.7157C58.8353 20.9279 59.0761 21.3051 59.0761 21.8473V34.8647C58.7334 35.4446 58.3813 35.968 58.0108 36.4206C57.3901 37.1466 56.7369 37.703 56.056 38.0943C55.4029 38.4856 54.6942 38.6837 53.9207 38.6837C53.2398 38.6837 52.6746 38.5469 52.23 38.2782C51.8131 37.9764 51.5027 37.5238 51.2943 36.9203C51.0858 36.3169 50.9839 35.5153 50.9839 34.5205V18.0896H41.4697V20.0792L41.9607 20.1688C42.7899 20.3197 43.3828 20.4988 43.7394 20.711C44.0961 20.9232 44.2721 21.3003 44.2721 21.8425V34.2895C44.2721 35.9491 44.5686 37.3541 45.1615 38.4998C45.7544 39.6455 46.5974 40.5083 47.6952 41.0788C48.793 41.654 50.0668 41.9368 51.5213 41.9368C52.8553 41.9368 54.055 41.7105 55.125 41.2579C56.1904 40.777 57.1538 40.0792 58.0154 39.174C58.5573 38.5847 59.0576 37.9104 59.5254 37.1702V41.4842H68.595V39.4946H68.3726L68.368 39.4993Z" fill="#FFA726"/>
<path d="M41.4234 39.5465C40.8907 39.5465 40.4136 39.5182 40.0014 39.457C39.6169 39.3674 39.3065 39.2165 39.0657 39.0043C38.8248 38.7922 38.709 38.5046 38.709 38.1462V25.2938C38.709 23.6059 38.4126 22.2009 37.8197 21.0835C37.2268 19.9379 36.3837 19.0751 35.2859 18.5046C34.1881 17.9294 32.9004 17.6465 31.4182 17.6465C30.0842 17.6465 28.8706 17.8869 27.7728 18.3726C26.7074 18.8535 25.7439 19.5324 24.8824 20.4093C24.3312 20.9704 23.8124 21.6305 23.326 22.366V18.0991H14.2518V20.0887L14.6965 20.1783C15.2292 20.3009 15.6739 20.4188 16.0305 20.5413C16.3872 20.6639 16.6373 20.8289 16.7856 21.0411C16.9616 21.2203 17.0542 21.4937 17.0542 21.8568V38.151C17.0542 38.514 16.9199 38.8016 16.6559 39.009C16.4196 39.2212 16.0908 39.3721 15.6785 39.4617C15.294 39.523 14.8494 39.5512 14.3445 39.5512H14.2565V41.4984H26.2627V39.5512H26.1747C25.818 39.5512 25.4475 39.5371 25.063 39.5041C24.7064 39.4758 24.396 39.4287 24.1273 39.3674C23.8911 39.3061 23.7707 39.2306 23.7707 39.1411V24.7469C24.0857 24.2141 24.4145 23.7238 24.748 23.2995C25.3687 22.5168 26.0357 21.9275 26.7491 21.5362C27.4624 21.1448 28.2174 20.9468 29.0188 20.9468C29.7321 20.9468 30.2926 21.0835 30.7095 21.3523C31.1542 21.6257 31.4784 22.0595 31.6868 22.663C31.8953 23.2665 31.9972 24.0491 31.9972 25.0157V39.1363C31.9972 39.2259 31.8629 39.3014 31.5988 39.3627C31.3302 39.4239 31.0059 39.4664 30.6215 39.4994C30.237 39.5324 29.8803 39.5465 29.5561 39.5465H29.5098V41.4937H41.4697V39.5465H41.4234Z" fill="#FFA726"/>
<path d="M83.5333 39.0938C83.0284 39.2446 82.4818 39.3201 81.8889 39.3201C81.1756 39.3201 80.5688 39.1833 80.0639 38.9146C79.559 38.6129 79.1746 38.1131 78.9059 37.42C78.6372 36.727 78.5075 35.7887 78.5075 34.6147V20.3573H84.242V18.0942H68.5903V20.3573H71.7911V34.1621C71.7911 36.0952 72.1616 37.6322 72.9028 38.7779C73.6439 39.9236 74.6537 40.7392 75.9275 41.2201C77.2013 41.701 78.6419 41.9462 80.2399 41.9462C80.9208 41.9462 81.5462 41.899 82.1066 41.8095C82.6717 41.7482 83.1581 41.6586 83.575 41.536C84.0197 41.4134 84.3763 41.2814 84.6404 41.1305V38.7779C84.4319 38.8392 84.0614 38.9429 83.5287 39.0938H83.5333Z" fill="#FFA726"/>
<path d="M78.5075 18.0943C73.051 18.0519 68.632 13.5587 68.5903 8C74.0469 8.04243 78.4659 12.5356 78.5075 18.0943Z" fill="#66BB6A"/>
<path d="M9.71268 19.5087V13.4738H15.6417V11.5879H7.85986V19.5087H9.71268Z" fill="white"/>
<path d="M158.267 40.0801V46.115H152.338V48.0009H160.12V40.0801H158.267Z" fill="white"/>
</svg>
