<svg width="32" height="33" viewBox="0 0 32 33" fill="none" xmlns="http://www.w3.org/2000/svg">
<path d="M21.8233 11.2885C17.0634 8.3926 19.2955 4.30526 19.3913 4.13536C19.5303 3.89359 19.5299 3.59615 19.3902 3.35479C19.2505 3.11344 18.9928 2.96484 18.714 2.96484C16.2638 2.96484 14.3452 3.66099 13.0114 5.03401C10.7322 7.3801 10.838 11.0315 10.8831 12.5908C10.8881 12.7635 10.8924 12.9128 10.8924 13.0236C10.8924 14.1813 11.0781 15.2501 11.242 16.1931C11.3477 16.8007 11.4389 17.3255 11.4551 17.7381C11.4724 18.1798 11.3918 18.281 11.3883 18.2851C11.3768 18.2987 11.281 18.3497 11.0219 18.3497C10.7264 18.3497 10.5085 18.2532 10.3155 18.0368C9.56152 17.1914 9.50938 14.8829 9.65355 13.627C9.67933 13.4056 9.60928 13.1837 9.461 13.0172C9.31277 12.8508 9.10048 12.7556 8.87756 12.7556C6.84917 12.7556 5.3335 16.0727 5.3335 19.0385C5.3335 20.4327 5.61391 21.7985 6.16699 23.0979C6.70167 24.354 7.46412 25.4878 8.43324 26.4674C10.4516 28.5078 13.1127 29.6315 15.9264 29.6315C18.7515 29.6315 21.4119 28.5237 23.4176 26.5122C25.4181 24.506 26.5199 21.8517 26.5199 19.0384C26.5198 15.4487 23.7112 12.437 21.8233 11.2885ZM15.9264 28.069C11.0315 28.069 6.89605 23.9335 6.89605 19.0384C6.89605 17.8479 7.18011 16.5983 7.67537 15.61C7.79105 15.3791 7.90975 15.181 8.02688 15.0142C8.03995 16.3031 8.24412 18.0601 9.14803 19.0752C9.63563 19.6228 10.2836 19.9122 11.0219 19.9122C11.7117 19.9122 12.2373 19.7031 12.5841 19.2908C13.2324 18.5201 13.0334 17.3751 12.7815 15.9255C12.6284 15.0447 12.455 14.0465 12.455 13.0235C12.455 12.8901 12.4503 12.7304 12.445 12.5455C12.4022 11.0685 12.3132 7.9951 14.1321 6.12276C14.9487 5.28219 16.0887 4.77063 17.5308 4.59557C17.368 5.1362 17.2277 5.8225 17.2222 6.59094C17.2103 8.28406 17.8579 10.7049 21.0112 12.6234C22.5369 13.5516 24.9574 16.1139 24.9574 19.0384C24.9573 24.0179 20.906 28.069 15.9264 28.069Z" fill="url(#paint0_linear_40001048_1584)"/>
<defs>
<linearGradient id="paint0_linear_40001048_1584" x1="15.9267" y1="2.96484" x2="15.9267" y2="29.6315" gradientUnits="userSpaceOnUse">
<stop stop-color="#FFA726"/>
<stop offset="1" stop-color="#BD7E21"/>
</linearGradient>
</defs>
</svg>
