<svg width="32" height="33" viewBox="0 0 32 33" fill="none" xmlns="http://www.w3.org/2000/svg">
<path d="M21.8232 11.2885C17.0634 8.3926 19.2955 4.30526 19.3912 4.13536C19.5302 3.89359 19.5298 3.59615 19.3901 3.35479C19.2505 3.11344 18.9928 2.96484 18.7139 2.96484C16.2637 2.96484 14.3451 3.66099 13.0113 5.03401C10.7322 7.3801 10.8379 11.0315 10.883 12.5908C10.888 12.7635 10.8923 12.9128 10.8923 13.0236C10.8923 14.1813 11.0781 15.2501 11.242 16.1931C11.3476 16.8007 11.4388 17.3255 11.455 17.7381C11.4723 18.1798 11.3917 18.281 11.3883 18.2851C11.3768 18.2987 11.2809 18.3497 11.0218 18.3497C10.7263 18.3497 10.5084 18.2532 10.3154 18.0368C9.56146 17.1914 9.50932 14.8829 9.65349 13.627C9.67927 13.4056 9.60922 13.1837 9.46093 13.0172C9.31271 12.8508 9.10041 12.7556 8.8775 12.7556C6.84911 12.7556 5.33344 16.0727 5.33344 19.0385C5.33344 20.4327 5.61385 21.7985 6.16692 23.0979C6.70161 24.354 7.46406 25.4878 8.43317 26.4674C10.4515 28.5078 13.1126 29.6315 15.9264 29.6315C18.7514 29.6315 21.4118 28.5237 23.4175 26.5122C25.4181 24.506 26.5198 21.8517 26.5198 19.0384C26.5197 15.4487 23.7111 12.437 21.8232 11.2885ZM15.9264 28.069C11.0314 28.069 6.89599 23.9335 6.89599 19.0384C6.89599 17.8479 7.18005 16.5983 7.67531 15.61C7.79099 15.3791 7.90969 15.181 8.02682 15.0142C8.03989 16.3031 8.24406 18.0601 9.14797 19.0752C9.63557 19.6228 10.2835 19.9122 11.0219 19.9122C11.7116 19.9122 12.2372 19.7031 12.584 19.2908C13.2323 18.5201 13.0333 17.3751 12.7815 15.9255C12.6284 15.0447 12.4549 14.0465 12.4549 13.0235C12.4549 12.8901 12.4503 12.7304 12.4449 12.5455C12.4022 11.0685 12.3132 7.9951 14.1321 6.12276C14.9486 5.28219 16.0886 4.77063 17.5308 4.59557C17.368 5.1362 17.2276 5.8225 17.2222 6.59094C17.2102 8.28406 17.8578 10.7049 21.0111 12.6234C22.5368 13.5516 24.9573 16.1139 24.9573 19.0384C24.9572 24.0179 20.906 28.069 15.9264 28.069Z" fill="url(#paint0_linear_40001048_2964)"/>
<defs>
<linearGradient id="paint0_linear_40001048_2964" x1="15.9266" y1="2.96484" x2="15.9266" y2="29.6315" gradientUnits="userSpaceOnUse">
<stop stop-color="#FFA726"/>
<stop offset="1" stop-color="#FFBF62"/>
</linearGradient>
</defs>
</svg>
