<svg width="32" height="33" viewBox="0 0 32 33" fill="none" xmlns="http://www.w3.org/2000/svg">
<path d="M25.4281 6.87005C22.9097 4.35177 19.5615 2.96484 16 2.96484C12.4385 2.96484 9.09027 4.35177 6.57188 6.87005C4.0536 9.38844 2.66667 12.7367 2.66667 16.2982C2.66667 19.8596 4.0536 23.2079 6.57188 25.7263C9.09027 28.2446 12.4385 29.6315 16 29.6315C19.5615 29.6315 22.9097 28.2446 25.4281 25.7263C27.9464 23.2079 29.3333 19.8596 29.3333 16.2982C29.3333 12.7367 27.9464 9.38844 25.4281 6.87005ZM16 28.069C9.50954 28.069 4.22917 22.7886 4.22917 16.2982C4.22917 9.80771 9.50954 4.52734 16 4.52734C22.4905 4.52734 27.7708 9.80771 27.7708 16.2982C27.7708 22.7886 22.4905 28.069 16 28.069Z" fill="url(#paint0_radial_40001048_3514)"/>
<path d="M11.9825 9.6575C12.335 9.72677 12.6775 9.49703 12.7468 9.14417C12.807 8.83812 13.0777 8.61594 13.3906 8.61594C13.7409 8.61594 14.0278 8.89177 14.0458 9.2376L14.0313 9.35109C13.9696 9.59141 13.8196 9.88599 13.596 10.2054C12.7877 11.3603 12.3054 11.9918 12.0463 12.331C11.7211 12.7569 11.5578 12.9706 11.6674 13.327C11.7323 13.5381 11.8918 13.6999 12.1054 13.7711C12.1911 13.7997 12.2683 13.8254 13.2741 13.8254C13.665 13.8254 14.1962 13.8215 14.9224 13.8124C15.282 13.8079 15.5698 13.5128 15.5652 13.1532C15.5608 12.7937 15.2671 12.5067 14.9061 12.5104C14.4442 12.5162 13.9562 12.5202 13.5338 12.5217C13.8101 12.15 14.1795 11.6424 14.6627 10.9519C14.9945 10.4779 15.2112 10.0286 15.3067 9.61661C15.3235 9.52536 15.346 9.36453 15.3488 9.27198C15.3488 8.19229 14.4703 7.3138 13.3906 7.3138C12.457 7.3138 11.6489 7.97802 11.4691 8.89313C11.3999 9.24604 11.6297 9.58818 11.9825 9.6575Z" fill="url(#paint1_radial_40001048_3514)"/>
<path d="M18.4448 13.8242C19.6017 13.8242 20.5429 12.883 20.5429 11.7261V9.41187C20.5429 8.255 19.6017 7.3138 18.4448 7.3138C17.2879 7.3138 16.3467 8.255 16.3467 9.41187V11.7261C16.3467 12.883 17.2879 13.8242 18.4448 13.8242ZM17.6488 9.41187C17.6488 8.97297 18.0059 8.61589 18.4448 8.61589C18.8837 8.61589 19.2408 8.97297 19.2408 9.41187V11.7261C19.2408 12.1651 18.8837 12.5221 18.4448 12.5221C18.0059 12.5221 17.6488 12.1651 17.6488 11.7261V9.41187Z" fill="url(#paint2_radial_40001048_3514)"/>
<path d="M15.6062 21.5883C15.2756 21.311 14.7828 21.3542 14.5056 21.6847C14.4511 21.7497 14.3923 21.8105 14.3309 21.8651C14.016 22.1456 13.6138 22.2878 13.1354 22.2878C11.8431 22.2878 10.7917 21.2364 10.7917 19.944C10.7917 18.6517 11.8431 17.6003 13.1354 17.6003C13.6052 17.6003 14.0581 17.7385 14.4453 18.0001C14.8028 18.2417 15.2884 18.1476 15.53 17.7901C15.7716 17.4326 15.6776 16.947 15.32 16.7054C14.6736 16.2686 13.9182 16.0378 13.1354 16.0378C10.9815 16.0378 9.22917 17.7901 9.22917 19.944C9.22917 22.0979 10.9815 23.8503 13.1354 23.8503C13.9963 23.8503 14.769 23.5673 15.3702 23.0318C15.4879 22.9269 15.5998 22.8116 15.7027 22.689C15.98 22.3583 15.9368 21.8656 15.6062 21.5883Z" fill="url(#paint3_radial_40001048_3514)"/>
<path d="M21.9898 17.0794C21.5827 17.0794 21.2487 17.3909 21.2122 17.7885C20.7631 17.5323 20.2442 17.3851 19.6912 17.3851C17.9931 17.3851 16.6114 18.7666 16.6114 20.4648C16.6114 22.1631 17.993 23.5446 19.6912 23.5446C20.2442 23.5446 20.7631 23.3974 21.2122 23.1412C21.2487 23.5388 21.5827 23.8503 21.9898 23.8503C22.4212 23.8503 22.771 23.5005 22.771 23.069V17.8607C22.771 17.4292 22.4212 17.0794 21.9898 17.0794ZM19.6912 21.9821C18.8546 21.9821 18.1739 21.3015 18.1739 20.4648C18.1739 19.6282 18.8546 18.9476 19.6912 18.9476C20.5279 18.9476 21.2085 19.6282 21.2085 20.4648C21.2085 21.3015 20.5279 21.9821 19.6912 21.9821Z" fill="url(#paint4_radial_40001048_3514)"/>
<defs>
<radialGradient id="paint0_radial_40001048_3514" cx="0" cy="0" r="1" gradientUnits="userSpaceOnUse" gradientTransform="translate(16 2.96484) rotate(90) scale(26.6667)">
<stop stop-color="#66BB6A"/>
<stop offset="1" stop-color="#90CE93"/>
</radialGradient>
<radialGradient id="paint1_radial_40001048_3514" cx="0" cy="0" r="1" gradientUnits="userSpaceOnUse" gradientTransform="translate(16 2.96484) rotate(90) scale(26.6667)">
<stop stop-color="#66BB6A"/>
<stop offset="1" stop-color="#90CE93"/>
</radialGradient>
<radialGradient id="paint2_radial_40001048_3514" cx="0" cy="0" r="1" gradientUnits="userSpaceOnUse" gradientTransform="translate(16 2.96484) rotate(90) scale(26.6667)">
<stop stop-color="#66BB6A"/>
<stop offset="1" stop-color="#90CE93"/>
</radialGradient>
<radialGradient id="paint3_radial_40001048_3514" cx="0" cy="0" r="1" gradientUnits="userSpaceOnUse" gradientTransform="translate(16 2.96484) rotate(90) scale(26.6667)">
<stop stop-color="#66BB6A"/>
<stop offset="1" stop-color="#90CE93"/>
</radialGradient>
<radialGradient id="paint4_radial_40001048_3514" cx="0" cy="0" r="1" gradientUnits="userSpaceOnUse" gradientTransform="translate(16 2.96484) rotate(90) scale(26.6667)">
<stop stop-color="#66BB6A"/>
<stop offset="1" stop-color="#90CE93"/>
</radialGradient>
</defs>
</svg>
