<svg width="32" height="33" viewBox="0 0 32 33" fill="none" xmlns="http://www.w3.org/2000/svg">
<path d="M25.428 6.87005C22.9096 4.35177 19.5613 2.96484 15.9998 2.96484C12.4384 2.96484 9.0901 4.35177 6.57171 6.87005C4.05343 9.38844 2.6665 12.7367 2.6665 16.2982C2.6665 19.8596 4.05343 23.2079 6.57171 25.7263C9.0901 28.2446 12.4384 29.6315 15.9998 29.6315C19.5613 29.6315 22.9096 28.2446 25.428 25.7263C27.9462 23.2079 29.3332 19.8596 29.3332 16.2982C29.3332 12.7367 27.9462 9.38844 25.428 6.87005ZM15.9998 28.069C9.50937 28.069 4.229 22.7886 4.229 16.2982C4.229 9.80771 9.50937 4.52734 15.9998 4.52734C22.4903 4.52734 27.7707 9.80771 27.7707 16.2982C27.7707 22.7886 22.4903 28.069 15.9998 28.069Z" fill="url(#paint0_radial_40001048_2284)"/>
<path d="M11.9824 9.6575C12.3349 9.72677 12.6774 9.49703 12.7467 9.14417C12.8068 8.83812 13.0776 8.61594 13.3904 8.61594C13.7407 8.61594 14.0277 8.89177 14.0456 9.2376L14.0312 9.35109C13.9694 9.59141 13.8194 9.88599 13.5958 10.2054C12.7875 11.3603 12.3053 11.9918 12.0462 12.331C11.7209 12.7569 11.5577 12.9706 11.6673 13.327C11.7321 13.5381 11.8917 13.6999 12.1052 13.7711C12.191 13.7997 12.2681 13.8254 13.274 13.8254C13.6648 13.8254 14.1961 13.8215 14.9223 13.8124C15.2818 13.8079 15.5696 13.5128 15.5651 13.1532C15.5606 12.7937 15.2669 12.5067 14.9059 12.5104C14.444 12.5162 13.956 12.5202 13.5336 12.5217C13.8099 12.15 14.1793 11.6424 14.6626 10.9519C14.9943 10.4779 15.211 10.0286 15.3065 9.61661C15.3233 9.52536 15.3458 9.36453 15.3486 9.27198C15.3486 8.19229 14.4702 7.3138 13.3904 7.3138C12.4568 7.3138 11.6488 7.97802 11.469 8.89313C11.3997 9.24604 11.6295 9.58818 11.9824 9.6575Z" fill="url(#paint1_radial_40001048_2284)"/>
<path d="M18.4446 13.8242C19.6015 13.8242 20.5427 12.883 20.5427 11.7261V9.41187C20.5427 8.255 19.6015 7.3138 18.4446 7.3138C17.2877 7.3138 16.3465 8.255 16.3465 9.41187V11.7261C16.3465 12.883 17.2878 13.8242 18.4446 13.8242ZM17.6486 9.41187C17.6486 8.97297 18.0057 8.61589 18.4446 8.61589C18.8835 8.61589 19.2406 8.97297 19.2406 9.41187V11.7261C19.2406 12.1651 18.8835 12.5221 18.4446 12.5221C18.0057 12.5221 17.6486 12.1651 17.6486 11.7261V9.41187Z" fill="url(#paint2_radial_40001048_2284)"/>
<path d="M15.606 21.5883C15.2754 21.311 14.7826 21.3542 14.5054 21.6847C14.4509 21.7497 14.3921 21.8105 14.3307 21.8651C14.0158 22.1456 13.6136 22.2878 13.1353 22.2878C11.8429 22.2878 10.7915 21.2364 10.7915 19.944C10.7915 18.6517 11.8429 17.6003 13.1353 17.6003C13.605 17.6003 14.058 17.7385 14.4451 18.0001C14.8026 18.2417 15.2883 18.1476 15.5298 17.7901C15.7714 17.4326 15.6774 16.947 15.3198 16.7054C14.6734 16.2686 13.918 16.0378 13.1353 16.0378C10.9813 16.0378 9.229 17.7901 9.229 19.944C9.229 22.0979 10.9813 23.8503 13.1353 23.8503C13.9961 23.8503 14.7688 23.5673 15.37 23.0318C15.4878 22.9269 15.5996 22.8116 15.7025 22.689C15.9798 22.3583 15.9366 21.8656 15.606 21.5883Z" fill="url(#paint3_radial_40001048_2284)"/>
<path d="M21.9896 17.0794C21.5825 17.0794 21.2485 17.3909 21.212 17.7885C20.7629 17.5323 20.244 17.3851 19.6911 17.3851C17.9929 17.3851 16.6113 18.7666 16.6113 20.4648C16.6113 22.1631 17.9928 23.5446 19.6911 23.5446C20.244 23.5446 20.7629 23.3974 21.212 23.1412C21.2485 23.5388 21.5825 23.8503 21.9896 23.8503C22.4211 23.8503 22.7709 23.5005 22.7709 23.069V17.8607C22.7709 17.4292 22.4211 17.0794 21.9896 17.0794ZM19.6911 21.9821C18.8545 21.9821 18.1738 21.3015 18.1738 20.4648C18.1738 19.6282 18.8544 18.9476 19.6911 18.9476C20.5277 18.9476 21.2084 19.6282 21.2084 20.4648C21.2084 21.3015 20.5277 21.9821 19.6911 21.9821Z" fill="url(#paint4_radial_40001048_2284)"/>
<defs>
<radialGradient id="paint0_radial_40001048_2284" cx="0" cy="0" r="1" gradientUnits="userSpaceOnUse" gradientTransform="translate(15.9998 2.96484) rotate(90) scale(26.6667)">
<stop stop-color="#66BB6A"/>
<stop offset="1" stop-color="#4F8D52"/>
</radialGradient>
<radialGradient id="paint1_radial_40001048_2284" cx="0" cy="0" r="1" gradientUnits="userSpaceOnUse" gradientTransform="translate(15.9998 2.96484) rotate(90) scale(26.6667)">
<stop stop-color="#66BB6A"/>
<stop offset="1" stop-color="#4F8D52"/>
</radialGradient>
<radialGradient id="paint2_radial_40001048_2284" cx="0" cy="0" r="1" gradientUnits="userSpaceOnUse" gradientTransform="translate(15.9998 2.96484) rotate(90) scale(26.6667)">
<stop stop-color="#66BB6A"/>
<stop offset="1" stop-color="#4F8D52"/>
</radialGradient>
<radialGradient id="paint3_radial_40001048_2284" cx="0" cy="0" r="1" gradientUnits="userSpaceOnUse" gradientTransform="translate(15.9998 2.96484) rotate(90) scale(26.6667)">
<stop stop-color="#66BB6A"/>
<stop offset="1" stop-color="#4F8D52"/>
</radialGradient>
<radialGradient id="paint4_radial_40001048_2284" cx="0" cy="0" r="1" gradientUnits="userSpaceOnUse" gradientTransform="translate(15.9998 2.96484) rotate(90) scale(26.6667)">
<stop stop-color="#66BB6A"/>
<stop offset="1" stop-color="#4F8D52"/>
</radialGradient>
</defs>
</svg>
