<svg width="32" height="33" viewBox="0 0 32 33" fill="none" xmlns="http://www.w3.org/2000/svg">
<path d="M22.9011 16.4359C21.7414 15.7077 20.4719 15.5363 19.327 15.9531C18.1818 16.3699 17.3197 17.3171 16.8994 18.6204C16.5016 19.8536 16.5507 21.2691 17.0373 22.6062C17.524 23.9432 18.3963 25.0591 19.4937 25.7481C20.2386 26.2158 21.0286 26.4539 21.802 26.4539C22.2327 26.4539 22.6582 26.3801 23.0678 26.231C24.213 25.8142 25.0751 24.8669 25.4954 23.5637C25.8931 22.3304 25.8441 20.915 25.3575 19.5779C24.8709 18.2408 23.9985 17.125 22.9011 16.4359ZM24.0083 23.0841C23.7393 23.9183 23.2155 24.5144 22.5335 24.7627C21.8512 25.0111 21.0669 24.891 20.3246 24.4249C19.52 23.9198 18.874 23.084 18.5056 22.0718C18.1372 21.0595 18.0948 20.0042 18.3865 19.1C18.6555 18.2657 19.1793 17.6696 19.8613 17.4214C20.0937 17.3368 20.3378 17.295 20.5882 17.295C21.0728 17.295 21.5808 17.4518 22.0702 17.7591C22.8748 18.2643 23.5208 19.1 23.8892 20.1123C24.2576 21.1245 24.3 22.1799 24.0083 23.0841Z" fill="url(#paint0_radial_40001048_3072)"/>
<path d="M28.7834 18.3311C28.1614 16.6222 27.0706 15.1692 25.6289 14.1293C24.6122 13.396 23.8717 12.4505 23.4875 11.3947L23.4862 11.391C22.9865 10.0184 21.9823 8.92243 20.6584 8.30504C19.3345 7.68774 17.8493 7.62295 16.4768 8.12248C15.8669 8.34446 15.3118 8.66629 14.8289 9.07134C13.9716 8.10155 12.8067 7.47311 11.5207 7.29113V6.82957C11.5207 5.8642 11.9855 4.94696 12.764 4.37618C13.1119 4.12102 13.1871 3.63211 12.932 3.28415C12.6768 2.93612 12.1879 2.86107 11.84 3.11607C11.1396 3.62972 10.607 4.32863 10.2902 5.1179C9.99672 4.76519 9.63901 4.43805 9.20505 4.18748C7.42849 3.16191 5.17833 3.88123 5.08328 3.91237C4.70489 4.03649 4.48041 4.42529 4.56213 4.81503C4.58265 4.91279 5.08458 7.22123 6.86119 8.24701C7.00317 8.32899 7.14823 8.39957 7.29489 8.46045C6.06073 9.46441 5.27067 10.9951 5.27067 12.7084C5.27067 13.8318 4.89828 14.9736 4.19369 16.0105C3.19463 17.4808 2.6665 19.2192 2.6665 21.0378C2.6665 25.7764 6.28797 29.6315 10.7394 29.6315C12.6994 29.6315 14.5995 28.8616 16.0641 27.4959C16.6134 27.9857 17.2245 28.4057 17.8873 28.743C19.0475 29.3335 20.2839 29.6315 21.5162 29.6315C22.4017 29.6315 23.2853 29.4776 24.1366 29.1678C28.3195 27.6452 30.4041 22.784 28.7834 18.3311ZM6.33895 5.23998C6.93276 5.16404 7.7625 5.15889 8.4237 5.54066C9.08729 5.92378 9.49687 6.64305 9.72724 7.19451C9.13333 7.27056 8.3038 7.27566 7.64245 6.89389C6.9789 6.51071 6.56932 5.79149 6.33895 5.23998ZM10.7394 28.069C7.14958 28.069 4.22901 24.9148 4.22901 21.0378C4.22901 19.5336 4.66369 18.0988 5.48604 16.8887C6.36734 15.5918 6.83317 14.1462 6.83317 12.7044C6.83317 10.5505 8.58552 8.79816 10.7394 8.79816C11.939 8.79816 13.0428 9.33316 13.7803 10.2511C13.6351 10.4725 13.5047 10.7059 13.3907 10.9502C12.7734 12.2741 12.7085 13.7592 13.2095 15.1356C13.5938 16.1912 13.6343 17.3916 13.3269 18.6069C12.8909 20.3301 12.9893 22.1443 13.6113 23.8532C13.9454 24.7715 14.4147 25.6142 14.9965 26.3571C13.8151 27.4656 12.326 28.069 10.7394 28.069ZM23.6021 27.6994C21.9777 28.2908 20.1999 28.1668 18.596 27.3505C16.9742 26.525 15.7253 25.0933 15.0795 23.319C14.5651 21.9054 14.4828 20.4086 14.8417 18.9901C15.2263 17.47 15.1696 15.9524 14.6765 14.5975C13.9397 12.5735 14.9871 10.3275 17.0112 9.59082C17.4471 9.43207 17.8989 9.35316 18.3495 9.35316C18.9121 9.35316 19.4728 9.47634 19.9979 9.72118C20.9436 10.1622 21.6609 10.9449 22.018 11.926L22.0191 11.9293C22.5109 13.2804 23.4431 14.4794 24.7148 15.3966C25.9014 16.2526 26.8005 17.4521 27.315 18.8656C28.6411 22.5087 26.9755 26.4717 23.6021 27.6994Z" fill="url(#paint1_radial_40001048_3072)"/>
<defs>
<radialGradient id="paint0_radial_40001048_3072" cx="0" cy="0" r="1" gradientUnits="userSpaceOnUse" gradientTransform="translate(15.9999 2.96484) rotate(90) scale(26.6667 26.6667)">
<stop stop-color="#66BB6A"/>
<stop offset="1" stop-color="#4F8D52"/>
</radialGradient>
<radialGradient id="paint1_radial_40001048_3072" cx="0" cy="0" r="1" gradientUnits="userSpaceOnUse" gradientTransform="translate(15.9999 2.96484) rotate(90) scale(26.6667 26.6667)">
<stop stop-color="#66BB6A"/>
<stop offset="1" stop-color="#4F8D52"/>
</radialGradient>
</defs>
</svg>
