<svg width="32" height="33" viewBox="0 0 32 33" fill="none" xmlns="http://www.w3.org/2000/svg">
<path d="M22.9012 16.4359C21.7415 15.7077 20.4721 15.5363 19.3271 15.9531C18.1819 16.3699 17.3198 17.3171 16.8995 18.6204C16.5018 19.8536 16.5508 21.2691 17.0374 22.6062C17.5241 23.9432 18.3965 25.0591 19.4938 25.7481C20.2387 26.2158 21.0288 26.4539 21.8022 26.4539C22.2328 26.4539 22.6583 26.3801 23.0679 26.231C24.2131 25.8142 25.0752 24.8669 25.4955 23.5637C25.8933 22.3304 25.8442 20.915 25.3576 19.5779C24.871 18.2408 23.9986 17.125 22.9012 16.4359ZM24.0085 23.0841C23.7395 23.9183 23.2157 24.5144 22.5336 24.7627C21.8514 25.0111 21.0671 24.891 20.3248 24.4249C19.5202 23.9198 18.8741 23.084 18.5058 22.0718C18.1373 21.0595 18.095 20.0042 18.3866 19.1C18.6556 18.2657 19.1795 17.6696 19.8615 17.4214C20.0939 17.3368 20.3379 17.295 20.5883 17.295C21.073 17.295 21.5809 17.4518 22.0703 17.7591C22.8749 18.2643 23.521 19.1 23.8893 20.1123C24.2578 21.1245 24.3001 22.1799 24.0085 23.0841Z" fill="url(#paint0_radial_40001048_3600)"/>
<path d="M28.7835 18.3311C28.1615 16.6222 27.0707 15.1692 25.6291 14.1293C24.6123 13.396 23.8719 12.4505 23.4877 11.3947L23.4863 11.391C22.9867 10.0184 21.9824 8.92243 20.6585 8.30504C19.3346 7.68774 17.8495 7.62295 16.477 8.12248C15.8671 8.34446 15.312 8.66629 14.829 9.07134C13.9717 8.10155 12.8069 7.47311 11.5209 7.29113V6.82957C11.5209 5.8642 11.9857 4.94696 12.7641 4.37618C13.1121 4.12102 13.1873 3.63211 12.9322 3.28415C12.677 2.93612 12.1881 2.86107 11.8401 3.11607C11.1397 3.62972 10.6071 4.32863 10.2903 5.1179C9.99686 4.76519 9.63916 4.43805 9.2052 4.18748C7.42863 3.16191 5.17848 3.88123 5.08342 3.91237C4.70504 4.03649 4.48056 4.42529 4.56228 4.81503C4.5828 4.91279 5.08473 7.22123 6.86134 8.24701C7.00332 8.32899 7.14837 8.39957 7.29504 8.46045C6.06087 9.46441 5.27082 10.9951 5.27082 12.7084C5.27082 13.8318 4.89842 14.9736 4.19384 16.0105C3.19478 17.4808 2.66665 19.2192 2.66665 21.0378C2.66665 25.7764 6.28811 29.6315 10.7396 29.6315C12.6996 29.6315 14.5996 28.8616 16.0643 27.4959C16.6136 27.9857 17.2247 28.4057 17.8875 28.743C19.0477 29.3335 20.284 29.6315 21.5163 29.6315C22.4019 29.6315 23.2854 29.4776 24.1367 29.1678C28.3197 27.6452 30.4042 22.784 28.7835 18.3311ZM6.3391 5.23998C6.9329 5.16404 7.76264 5.15889 8.42384 5.54066C9.08744 5.92378 9.49702 6.64305 9.72739 7.19451C9.13348 7.27056 8.30395 7.27566 7.64259 6.89389C6.97905 6.51071 6.56947 5.79149 6.3391 5.23998ZM10.7396 28.069C7.14973 28.069 4.22915 24.9148 4.22915 21.0378C4.22915 19.5336 4.66384 18.0988 5.48618 16.8887C6.36749 15.5918 6.83332 14.1462 6.83332 12.7044C6.83332 10.5505 8.58567 8.79816 10.7396 8.79816C11.9391 8.79816 13.0429 9.33316 13.7805 10.2511C13.6352 10.4725 13.5048 10.7059 13.3909 10.9502C12.7735 12.2741 12.7087 13.7592 13.2097 15.1356C13.594 16.1912 13.6345 17.3916 13.327 18.6069C12.891 20.3301 12.9894 22.1443 13.6114 23.8532C13.9456 24.7715 14.4149 25.6142 14.9967 26.3571C13.8153 27.4656 12.3262 28.069 10.7396 28.069ZM23.6023 27.6994C21.9779 28.2908 20.2 28.1668 18.5962 27.3505C16.9743 26.525 15.7255 25.0933 15.0797 23.319C14.5652 21.9054 14.4829 20.4086 14.8418 18.9901C15.2264 17.47 15.1697 15.9524 14.6766 14.5975C13.9399 12.5735 14.9873 10.3275 17.0113 9.59082C17.4473 9.43207 17.8991 9.35316 18.3496 9.35316C18.9123 9.35316 19.473 9.47634 19.9981 9.72118C20.9437 10.1622 21.661 10.9449 22.0181 11.926L22.0192 11.9293C22.511 13.2804 23.4432 14.4794 24.7149 15.3966C25.9015 16.2526 26.8007 17.4521 27.3152 18.8656C28.6413 22.5087 26.9757 26.4717 23.6023 27.6994Z" fill="url(#paint1_radial_40001048_3600)"/>
<defs>
<radialGradient id="paint0_radial_40001048_3600" cx="0" cy="0" r="1" gradientUnits="userSpaceOnUse" gradientTransform="translate(16 2.96484) rotate(90) scale(26.6667 26.6667)">
<stop stop-color="#66BB6A"/>
<stop offset="1" stop-color="#90CE93"/>
</radialGradient>
<radialGradient id="paint1_radial_40001048_3600" cx="0" cy="0" r="1" gradientUnits="userSpaceOnUse" gradientTransform="translate(16 2.96484) rotate(90) scale(26.6667 26.6667)">
<stop stop-color="#66BB6A"/>
<stop offset="1" stop-color="#90CE93"/>
</radialGradient>
</defs>
</svg>
