<svg width="24" height="24" viewBox="0 0 24 24" fill="none" xmlns="http://www.w3.org/2000/svg">
<path d="M21.4609 10.699C21.4603 10.6986 21.4598 10.698 21.4594 10.6975L13.3009 2.5394C12.9532 2.1915 12.4908 2 11.9991 2C11.5073 2 11.0449 2.1915 10.697 2.5394L2.54288 10.6934C2.54014 10.6961 2.53724 10.699 2.53464 10.7018C1.82053 11.42 1.82175 12.5853 2.53815 13.3017C2.86545 13.6292 3.29758 13.8187 3.75977 13.8387C3.77869 13.8405 3.79761 13.8414 3.81669 13.8414H4.1417V19.8452C4.1417 21.0334 5.10849 22 6.2967 22H9.48853C9.81217 22 10.0745 21.7375 10.0745 21.4141V16.707C10.0745 16.1649 10.5156 15.7239 11.0577 15.7239H12.9404C13.4825 15.7239 13.9235 16.1649 13.9235 16.707V21.4141C13.9235 21.7375 14.1858 22 14.5094 22H17.7013C18.8896 22 19.8563 21.0334 19.8563 19.8452V13.8414H20.1578C20.6494 13.8414 21.1118 13.6499 21.4598 13.3019C22.177 12.5844 22.1773 11.417 21.4609 10.699ZM20.6311 12.4733C20.5046 12.5998 20.3365 12.6696 20.1578 12.6696H19.2703C18.9467 12.6696 18.6844 12.9319 18.6844 13.2555V19.8452C18.6844 20.3871 18.2434 20.8281 17.7013 20.8281H15.0954V16.707C15.0954 15.5188 14.1287 14.552 12.9404 14.552H11.0577C9.86939 14.552 8.90259 15.5188 8.90259 16.707V20.8281H6.2967C5.7547 20.8281 5.31357 20.3871 5.31357 19.8452V13.2555C5.31357 12.9319 5.05127 12.6696 4.72764 12.6696H3.85544C3.84629 12.6689 3.83729 12.6685 3.82798 12.6683C3.65342 12.6653 3.48969 12.596 3.36701 12.4732C3.10608 12.2122 3.10608 11.7876 3.36701 11.5265C3.36716 11.5265 3.36716 11.5264 3.36731 11.5262L3.36777 11.5258L11.5259 3.36795C11.6522 3.24146 11.8202 3.17188 11.9991 3.17188C12.1777 3.17188 12.3457 3.24146 12.4722 3.36795L20.6285 11.5241C20.6297 11.5253 20.6311 11.5265 20.6323 11.5277C20.8919 11.7891 20.8914 12.2129 20.6311 12.4733Z" fill="#565656"/>
</svg>
