<svg width="32" height="33" viewBox="0 0 32 33" fill="none" xmlns="http://www.w3.org/2000/svg">
<path d="M28.5507 23.1089H27.9636C27.8898 21.5448 27.5498 20.0941 26.9496 18.7884C26.2898 17.3527 25.2942 16.0429 23.9856 14.8856C24.4759 14.3608 24.7454 13.6807 24.7454 12.9589C24.7454 12.6539 24.6965 12.3565 24.6041 12.0749L26.3744 10.3046L27.3417 10.272C28.3574 10.2378 29.208 9.45026 29.3202 8.44025C29.3823 7.88169 29.2195 7.33522 28.862 6.90166C28.5044 6.46811 27.999 6.20431 27.4389 6.15894L27.4344 6.15857C27.4341 6.1556 27.434 6.15404 27.434 6.15404C27.3886 5.59391 27.1248 5.08843 26.6912 4.73092C26.2577 4.37345 25.7113 4.21063 25.1527 4.27269C24.1426 4.38493 23.3551 5.2355 23.3209 6.25125L23.2883 7.21855L21.5166 8.99021C20.5362 8.66947 19.4139 8.89733 18.636 9.67526C18.1754 10.1359 17.5594 10.4346 16.9014 10.5162C15.755 10.6586 14.7092 11.1414 13.8608 11.9165C11.0691 12.4204 8.53188 13.8565 6.69414 15.9792C4.95465 17.9884 3.93728 20.4985 3.79084 23.1089H3.44881C3.01677 23.1089 2.6665 23.4592 2.6665 23.8912C2.6665 24.3233 3.01677 24.6736 3.44881 24.6736H3.96107L4.49392 26.5413C4.796 27.6001 5.77586 28.3394 6.87673 28.3394H25.1235C26.2237 28.3394 27.2034 27.6007 27.5059 26.5428L28.0405 24.6736H28.5506C28.9827 24.6736 29.3329 24.3233 29.3329 23.8913C29.3329 23.4593 28.9827 23.1089 28.5507 23.1089ZM24.6129 8.10657C24.7532 7.96633 24.835 7.778 24.8416 7.57971L24.8846 6.30388C24.8929 6.05943 25.0824 5.85478 25.3255 5.82771C25.4597 5.81285 25.5914 5.85191 25.6957 5.93796C25.8001 6.02402 25.8635 6.14564 25.8745 6.28046L25.9263 6.91913C25.9638 7.38116 26.3061 7.63588 26.6451 7.66415L27.3124 7.71839C27.4472 7.72929 27.5688 7.79276 27.6549 7.89712C27.7409 8.00148 27.7801 8.13296 27.7652 8.26747C27.7382 8.5105 27.5335 8.70003 27.289 8.70827L26.0132 8.7513C25.8149 8.75797 25.6266 8.8397 25.4864 8.97999L23.7116 10.7548L22.8381 9.88137L24.6129 8.10657ZM17.0942 12.0689C18.0962 11.9445 19.0367 11.4873 19.7425 10.7815C19.9883 10.5357 20.3111 10.4128 20.634 10.4128C20.9569 10.4128 21.2797 10.5357 21.5255 10.7815L22.8114 12.0674C23.0496 12.3055 23.1807 12.6222 23.1807 12.959C23.1807 13.2957 23.0496 13.6123 22.8114 13.8505C22.604 14.058 22.4187 14.2864 22.2563 14.5307C22.2435 14.5484 22.2313 14.5663 22.2202 14.5847C21.8511 15.1574 21.6098 15.8155 21.5234 16.5039C21.4165 17.3563 21.0448 18.1348 20.4486 18.755C19.7145 19.5187 18.7213 19.9491 17.652 19.9671C16.5829 19.9847 15.5789 19.5891 14.821 18.8521C14.053 18.1051 13.6259 17.1044 13.6185 16.0342C13.611 14.9638 14.0238 13.9574 14.7806 13.2005C15.4114 12.5697 16.2114 12.1784 17.0942 12.0689ZM6.86906 18.3795C7.17218 19.2644 7.71275 20.3399 8.67609 21.3032C8.82884 21.456 9.02906 21.5324 9.22923 21.5324C9.4294 21.5324 9.62967 21.456 9.78237 21.3032C10.0879 20.9977 10.0879 20.5024 9.78237 20.1969C8.52489 18.9394 8.17473 17.4077 8.08054 16.7758C9.27935 15.4695 10.7912 14.4822 12.4687 13.8959C12.1915 14.5679 12.0487 15.2952 12.0539 16.0451C12.0643 17.5373 12.6596 18.9325 13.7302 19.9737C14.7659 20.981 16.1303 21.5324 17.5818 21.5324C17.6139 21.5324 17.6462 21.5321 17.6785 21.5315C19.1674 21.5065 20.5518 20.9054 21.5767 19.8392C22.4083 18.9741 22.9268 17.8881 23.076 16.6986C23.0949 16.5475 23.1256 16.399 23.1662 16.2539C25.1897 18.1279 26.2522 20.3833 26.397 23.1089H5.35795C5.46628 21.4365 5.98766 19.8134 6.86906 18.3795ZM26.0016 26.1125C25.8901 26.5024 25.529 26.7747 25.1235 26.7747H6.87678C6.47102 26.7747 6.10986 26.5022 5.99851 26.112L5.58811 24.6735H26.4132L26.0016 26.1125Z" fill="url(#paint0_radial_40001048_2197)"/>
<defs>
<radialGradient id="paint0_radial_40001048_2197" cx="0" cy="0" r="1" gradientUnits="userSpaceOnUse" gradientTransform="translate(15.9998 4.25977) rotate(90) scale(24.0797 26.6667)">
<stop stop-color="#A883FF"/>
<stop offset="1" stop-color="#7E4CE3"/>
</radialGradient>
</defs>
</svg>
