<svg width="32" height="33" viewBox="0 0 32 33" fill="none" xmlns="http://www.w3.org/2000/svg">
<path d="M28.5508 23.1089H27.9637C27.8899 21.5448 27.5499 20.0941 26.9498 18.7884C26.29 17.3527 25.2943 16.0429 23.9857 14.8856C24.4761 14.3608 24.7455 13.6807 24.7455 12.9589C24.7455 12.6539 24.6967 12.3565 24.6043 12.0749L26.3746 10.3046L27.3419 10.272C28.3576 10.2378 29.2082 9.45026 29.3204 8.44025C29.3825 7.88169 29.2197 7.33522 28.8621 6.90166C28.5046 6.46811 27.9991 6.20431 27.4391 6.15894L27.4345 6.15857C27.4343 6.1556 27.4342 6.15404 27.4342 6.15404C27.3887 5.59391 27.1249 5.08843 26.6914 4.73092C26.2578 4.37345 25.7114 4.21063 25.1528 4.27269C24.1428 4.38493 23.3553 5.2355 23.321 6.25125L23.2885 7.21855L21.5168 8.99021C20.5364 8.66947 19.4141 8.89733 18.6362 9.67526C18.1755 10.1359 17.5596 10.4346 16.9016 10.5162C15.7551 10.6586 14.7094 11.1414 13.861 11.9165C11.0693 12.4204 8.53204 13.8565 6.6943 15.9792C4.95481 17.9884 3.93745 20.4985 3.791 23.1089H3.44897C3.01693 23.1089 2.66667 23.4592 2.66667 23.8912C2.66667 24.3233 3.01693 24.6736 3.44897 24.6736H3.96123L4.49408 26.5413C4.79616 27.6001 5.77603 28.3394 6.87689 28.3394H25.1236C26.2238 28.3394 27.2035 27.6007 27.5061 26.5428L28.0407 24.6736H28.5508C28.9828 24.6736 29.3331 24.3233 29.3331 23.8913C29.3331 23.4593 28.9829 23.1089 28.5508 23.1089ZM24.6131 8.10657C24.7533 7.96633 24.8351 7.778 24.8418 7.57971L24.8848 6.30388C24.893 6.05943 25.0825 5.85478 25.3256 5.82771C25.4599 5.81285 25.5916 5.85191 25.6959 5.93796C25.8002 6.02402 25.8637 6.14564 25.8747 6.28046L25.9264 6.91913C25.9639 7.38116 26.3062 7.63588 26.6453 7.66415L27.3126 7.71839C27.4474 7.72929 27.569 7.79276 27.655 7.89712C27.7411 8.00148 27.7803 8.13296 27.7653 8.26747C27.7383 8.5105 27.5336 8.70003 27.2892 8.70827L26.0133 8.7513C25.8151 8.75797 25.6268 8.8397 25.4865 8.97999L23.7117 10.7548L22.8383 9.88137L24.6131 8.10657ZM17.0943 12.0689C18.0963 11.9445 19.0368 11.4873 19.7426 10.7815C19.9884 10.5357 20.3113 10.4128 20.6342 10.4128C20.957 10.4128 21.2799 10.5357 21.5257 10.7815L22.8116 12.0674C23.0497 12.3055 23.1809 12.6222 23.1809 12.959C23.1809 13.2957 23.0497 13.6123 22.8116 13.8505C22.6042 14.058 22.4188 14.2864 22.2564 14.5307C22.2437 14.5484 22.2314 14.5663 22.2203 14.5847C21.8512 15.1574 21.6099 15.8155 21.5236 16.5039C21.4166 17.3563 21.045 18.1348 20.4488 18.755C19.7147 19.5187 18.7215 19.9491 17.6522 19.9671C16.5831 19.9847 15.579 19.5891 14.8212 18.8521C14.0532 18.1051 13.6261 17.1044 13.6187 16.0342C13.6112 14.9638 14.0239 13.9574 14.7808 13.2005C15.4116 12.5697 16.2115 12.1784 17.0943 12.0689ZM6.86922 18.3795C7.17234 19.2644 7.71291 20.3399 8.67625 21.3032C8.82901 21.456 9.02923 21.5324 9.22939 21.5324C9.42956 21.5324 9.62983 21.456 9.78254 21.3032C10.0881 20.9977 10.0881 20.5024 9.78254 20.1969C8.52505 18.9394 8.17489 17.4077 8.0807 16.7758C9.27951 15.4695 10.7913 14.4822 12.4688 13.8959C12.1917 14.5679 12.0489 15.2952 12.0541 16.0451C12.0645 17.5373 12.6598 18.9325 13.7304 19.9737C14.7661 20.981 16.1305 21.5324 17.5819 21.5324C17.6141 21.5324 17.6464 21.5321 17.6786 21.5315C19.1675 21.5065 20.5519 20.9054 21.5769 19.8392C22.4085 18.9741 22.9269 17.8881 23.0761 16.6986C23.0951 16.5475 23.1257 16.399 23.1664 16.2539C25.1899 18.1279 26.2524 20.3833 26.3972 23.1089H5.35812C5.46644 21.4365 5.98782 19.8134 6.86922 18.3795ZM26.0018 26.1125C25.8903 26.5024 25.5292 26.7747 25.1237 26.7747H6.87694C6.47118 26.7747 6.11002 26.5022 5.99867 26.112L5.58827 24.6735H26.4134L26.0018 26.1125Z" fill="url(#paint0_radial_40001048_3698)"/>
<defs>
<radialGradient id="paint0_radial_40001048_3698" cx="0" cy="0" r="1" gradientUnits="userSpaceOnUse" gradientTransform="translate(16 4.25977) rotate(90) scale(24.0797 26.6667)">
<stop stop-color="#A883FF"/>
<stop offset="1" stop-color="#7E4CE3"/>
</radialGradient>
</defs>
</svg>
