<svg width="98" height="32" viewBox="0 0 98 32" fill="none" xmlns="http://www.w3.org/2000/svg">
<g clip-path="url(#clip0_15046_10611)">
<path d="M89.5045 22.5979C89.3159 22.5979 89.1085 22.571 88.8849 22.5198C88.6612 22.4497 88.4457 22.3554 88.2383 22.2342C88.0308 22.0968 87.8422 21.9244 87.6698 21.7169L82.9658 15.251L85.9105 12.5595C86.2042 12.3171 86.4871 12.1204 86.7646 11.9641C87.0582 11.7917 87.3519 11.6624 87.6429 11.5762C87.9365 11.49 88.2194 11.4469 88.4969 11.4469H88.5238V10.3342H82.7045V11.4469H82.9362C83.1948 11.4469 83.4535 11.463 83.7121 11.498C83.9869 11.5331 84.2213 11.5843 84.4099 11.6543C84.5985 11.7243 84.6955 11.8267 84.6955 11.9641L79.679 16.5415V16.8783L83.6367 22.3366C83.6367 22.3878 83.5585 22.439 83.405 22.4929C83.2676 22.5279 83.0951 22.5521 82.8877 22.571C82.6802 22.5871 82.4997 22.5979 82.3435 22.5979H82.2923V23.7106H89.5611V22.5979H89.5099H89.5045Z" fill="#FFA726"/>
<path d="M79.9618 22.571C79.7544 22.5548 79.5739 22.5198 79.4176 22.4686C79.2802 22.4174 79.2102 22.3474 79.2102 22.2611V10.3369H73.6764V11.4738L73.935 11.525C74.2637 11.5762 74.5224 11.6381 74.7109 11.7055C74.9184 11.7755 75.0639 11.8698 75.1501 11.9911C75.2525 12.0934 75.3063 12.2497 75.3063 12.4571V21.7951C75.3063 22.0025 75.2363 22.1669 75.0989 22.2854C74.9615 22.4066 74.7702 22.4928 74.5304 22.544C74.288 22.5791 74.0212 22.5952 73.7276 22.5952H73.7006V23.7079H80.6569V22.5952H80.63C80.4064 22.5952 80.1828 22.5871 79.9564 22.5683L79.9618 22.571Z" fill="#FFA726"/>
<path d="M73.5713 22.571C73.2776 22.5548 73.019 22.5198 72.7954 22.4686C72.5718 22.4174 72.3994 22.3393 72.2781 22.2369C72.1569 22.1157 72.0976 21.9513 72.0976 21.7466V14.5317C72.0976 13.7557 71.9602 13.093 71.6827 12.5407C71.4079 11.9722 71.02 11.5061 70.5188 11.1451C70.0177 10.7841 69.425 10.5147 68.7353 10.3423C68.0456 10.1698 67.2966 10.0836 66.4857 10.0836C65.5374 10.0836 64.7022 10.186 63.9775 10.3934C63.2716 10.582 62.6762 10.8083 62.1939 11.067C61.7117 11.3095 61.3399 11.525 61.0812 11.7136V14.4023H64.158V11.9399C64.193 11.9156 64.2253 11.8914 64.2603 11.8671C64.7426 11.5735 65.338 11.428 66.0439 11.428C66.545 11.428 66.9572 11.5142 67.2859 11.6866C67.6146 11.8429 67.8543 12.1015 68.0106 12.4626C68.1669 12.8236 68.2423 13.3085 68.2423 13.912V15.806C67.0919 15.9596 66.0546 16.1401 65.1386 16.3421C64.0529 16.5846 63.1396 16.8944 62.396 17.2743C61.6551 17.6353 61.0947 18.0772 60.7148 18.5944C60.3538 19.1117 60.1706 19.7314 60.1706 20.4561C60.1706 21.1808 60.343 21.8355 60.6879 22.3689C61.0489 22.8862 61.5419 23.2822 62.1616 23.5597C62.8001 23.8345 63.5329 23.9746 64.36 23.9746C65.1871 23.9746 65.8526 23.8453 66.4561 23.5867C67.0596 23.3119 67.5688 22.9239 67.981 22.4228C68.1857 22.1857 68.3662 21.9244 68.5252 21.6442V23.716H73.671V22.5791H73.5686L73.5713 22.571ZM67.9352 21.073C67.6604 21.4879 67.3317 21.8139 66.9518 22.0564C66.5908 22.28 66.1759 22.3932 65.7098 22.3932C65.3488 22.3932 65.0201 22.315 64.7264 22.1615C64.4516 21.9891 64.2361 21.7466 64.0798 21.4368C63.9424 21.1269 63.8724 20.739 63.8724 20.2729C63.8724 19.8768 63.9317 19.5131 64.0529 19.1871C64.1741 18.8611 64.3627 18.5756 64.6214 18.3331C64.88 18.0745 65.2087 17.8508 65.6047 17.6596C66.0008 17.471 66.4749 17.3147 67.0272 17.1935C67.399 17.0992 67.8058 17.0237 68.2423 16.9618V20.5773C68.1453 20.7497 68.0429 20.9168 67.9325 21.073H67.9352Z" fill="#FFA726"/>
<path d="M59.788 10.1833C59.6318 10.1483 59.4513 10.1321 59.2438 10.1321C58.5541 10.1321 57.9506 10.3315 57.4334 10.7275C56.9161 11.1074 56.4769 11.6409 56.1132 12.3306C55.8681 12.7832 55.6471 13.2897 55.4397 13.8366V10.3396H50.1646V11.4765L50.4232 11.5277C50.733 11.5978 50.9917 11.6651 51.1991 11.7352C51.4066 11.8052 51.552 11.8995 51.6382 12.0207C51.7406 12.1231 51.7945 12.2794 51.7945 12.4868V21.7978C51.7945 22.1265 51.6383 22.342 51.3284 22.4444C51.0348 22.5468 50.6657 22.6007 50.2157 22.6007H50.1646V23.7133H57.7944V22.6007H57.4064C57.1639 22.6007 56.9053 22.5926 56.6305 22.5737C56.3719 22.5575 56.1483 22.5225 55.957 22.4713C55.7845 22.4013 55.6983 22.3151 55.6983 22.2127V14.8927C55.7495 14.82 55.8007 14.7499 55.8546 14.6852C56.0782 14.3916 56.3288 14.1518 56.6036 13.9605C56.8972 13.7719 57.2071 13.6318 57.5357 13.5456C57.8644 13.4594 58.2254 13.4163 58.6215 13.4163C58.8101 13.4163 59.0014 13.4244 59.1899 13.4432C59.3785 13.4594 59.551 13.4864 59.7072 13.5214C59.8796 13.5564 60.0359 13.5914 60.1733 13.6238V10.2615C60.0871 10.2264 59.9578 10.2022 59.7854 10.1833H59.788Z" fill="#FFA726"/>
<path d="M39.9079 22.571C39.5981 22.5549 39.3314 22.5198 39.1051 22.4687C38.8788 22.4175 38.7091 22.3393 38.5878 22.237C38.4666 22.1157 38.4073 21.9514 38.4073 21.7466V10.3369H32.5098V11.4738L32.9759 11.552C33.4582 11.6032 33.8299 11.6975 34.0886 11.8376C34.3634 11.9588 34.5035 12.1743 34.5035 12.4841V19.9227C34.3041 20.2541 34.0994 20.5531 33.8838 20.8118C33.5228 21.2267 33.1429 21.5446 32.7469 21.7682C32.367 21.9918 31.9548 22.1049 31.5049 22.1049C31.1089 22.1049 30.7802 22.0268 30.5215 21.8733C30.2791 21.7008 30.0986 21.4422 29.9773 21.0973C29.8561 20.7525 29.7968 20.2945 29.7968 19.726V10.3369H24.263V11.4738L24.5486 11.525C25.0309 11.6112 25.3757 11.7136 25.5832 11.8349C25.7906 11.9561 25.893 12.1716 25.893 12.4815V19.594C25.893 20.5423 26.0654 21.3452 26.4103 21.9999C26.7551 22.6546 27.2455 23.1476 27.884 23.4736C28.5225 23.8023 29.2634 23.9639 30.1093 23.9639C30.8852 23.9639 31.583 23.8346 32.2054 23.576C32.825 23.3011 33.3854 22.9024 33.8865 22.3851C34.2017 22.0484 34.4927 21.6631 34.7648 21.2401V23.7053H40.04V22.5683H39.9106L39.9079 22.571Z" fill="#FFA726"/>
<path d="M24.2361 22.5979C23.9263 22.5979 23.6488 22.5818 23.409 22.5467C23.1854 22.4956 23.0049 22.4093 22.8648 22.2881C22.7247 22.1669 22.6573 22.0025 22.6573 21.7978V14.4535C22.6573 13.489 22.4849 12.6862 22.14 12.0477C21.7952 11.393 21.3049 10.8999 20.6663 10.574C20.0278 10.2453 19.2789 10.0836 18.4167 10.0836C17.6408 10.0836 16.9349 10.221 16.2964 10.4985C15.6768 10.7733 15.1164 11.1613 14.6153 11.6624C14.2947 11.983 13.9929 12.3602 13.7101 12.7805V10.3423H8.43222V11.4792L8.69086 11.5304C9.00069 11.6004 9.25932 11.6678 9.46677 11.7378C9.67422 11.8079 9.81971 11.9022 9.90592 12.0234C10.0083 12.1258 10.0622 12.282 10.0622 12.4895V21.8005C10.0622 22.0079 9.98405 22.1723 9.83048 22.2908C9.69308 22.412 9.5018 22.4982 9.26202 22.5494C9.0384 22.5845 8.77977 22.6006 8.4861 22.6006H8.43491V23.7133H15.4181V22.6006H15.367C15.1595 22.6006 14.944 22.5925 14.7204 22.5737C14.5129 22.5575 14.3324 22.5306 14.1761 22.4956C14.0387 22.4605 13.9687 22.4174 13.9687 22.3662V14.141C14.1519 13.8366 14.3432 13.5564 14.5372 13.3139C14.8982 12.8667 15.2861 12.5299 15.701 12.3063C16.1159 12.0827 16.5551 11.9695 17.0212 11.9695C17.4361 11.9695 17.7621 12.0477 18.0045 12.2012C18.2632 12.3575 18.4518 12.6053 18.573 12.9502C18.6942 13.295 18.7535 13.7423 18.7535 14.2946V22.3635C18.7535 22.4147 18.6754 22.4578 18.5218 22.4929C18.3655 22.5279 18.1769 22.5521 17.9533 22.571C17.7297 22.5898 17.5223 22.5979 17.3337 22.5979H17.3067V23.7106H24.263V22.5979H24.2361Z" fill="#FFA726"/>
<path d="M48.7286 22.3393C48.4349 22.4255 48.117 22.4686 47.7722 22.4686C47.3573 22.4686 47.0043 22.3905 46.7107 22.237C46.417 22.0645 46.1934 21.7789 46.0371 21.3829C45.8809 20.9869 45.8054 20.4507 45.8054 19.7799V11.6328H49.1408V10.3396H40.0373V11.6328H41.8989V19.5213C41.8989 20.6259 42.1144 21.5041 42.5455 22.1588C42.9766 22.8135 43.5639 23.2796 44.3048 23.5544C45.0457 23.8292 45.8836 23.9693 46.813 23.9693C47.2091 23.9693 47.5728 23.9423 47.8988 23.8912C48.2275 23.8561 48.5104 23.8049 48.7528 23.7349C49.0115 23.6648 49.2189 23.5894 49.3725 23.5032V22.1588C49.2512 22.1938 49.0357 22.2531 48.7259 22.3393H48.7286Z" fill="#FFA726"/>
<path d="M45.8054 10.3396C42.6317 10.3153 40.0615 7.74781 40.0373 4.57141C43.211 4.59566 45.7812 7.16318 45.8054 10.3396Z" fill="#66BB6A"/>
<path d="M5.79195 11.1478V7.6993H9.24046V6.62164H4.71429V11.1478H5.79195Z" fill="#565656"/>
<path d="M92.1959 22.9024V26.3509H88.7474V27.4286H93.2736V22.9024H92.1959Z" fill="#565656"/>
</g>
<defs>
<clipPath id="clip0_15046_10611">
<rect width="88.5593" height="22.8571" fill="white" transform="translate(4.71429 4.57141)"/>
</clipPath>
</defs>
</svg>
