<svg width="32" height="33" viewBox="0 0 32 33" fill="none" xmlns="http://www.w3.org/2000/svg">
<path d="M13.4404 11.5093C9.49415 11.5093 6.28368 14.7276 6.28368 18.6835C6.28368 22.6394 9.4942 25.8577 13.4404 25.8577C17.3866 25.8577 20.5971 22.6394 20.5971 18.6835C20.5971 14.7276 17.3866 11.5093 13.4404 11.5093ZM13.4404 24.2952C10.3557 24.2952 7.84618 21.7778 7.84618 18.6835C7.84618 15.5892 10.3558 13.0718 13.4404 13.0718C16.525 13.0718 19.0346 15.5892 19.0346 18.6835C19.0346 21.7778 16.525 24.2952 13.4404 24.2952Z" fill="url(#paint0_linear_40001048_2732)"/>
<path d="M13.4404 15.0293C12.2048 15.0293 11.1996 16.0341 11.1996 17.2693V21.556C11.1996 21.9875 11.5494 22.3373 11.9809 22.3373C12.4123 22.3373 12.7621 21.9875 12.7621 21.556V20.1053H14.1186V21.556C14.1186 21.9875 14.4684 22.3373 14.8998 22.3373C15.3313 22.3373 15.6811 21.9875 15.6811 21.556V17.2693C15.6811 16.0342 14.6759 15.0293 13.4404 15.0293ZM12.7621 18.5428V17.2693C12.7621 16.8957 13.0664 16.5918 13.4403 16.5918C13.8143 16.5918 14.1185 16.8957 14.1185 17.2693V18.5428H12.7621Z" fill="url(#paint1_linear_40001048_2732)"/>
<path d="M29.2553 12.654C28.5799 8.0768 22.7916 3.33863 22.5456 3.1392C22.2595 2.90738 21.8505 2.9067 21.5637 3.13753C21.4769 3.20743 19.6143 4.71665 17.864 6.89982C15.7794 4.67196 13.9808 3.20706 13.8971 3.1392C13.6109 2.90722 13.2017 2.9067 12.9149 3.13779C12.8257 3.20972 10.7024 4.9293 8.39208 7.54862C5.25333 11.107 3.38188 14.4635 2.82958 17.5249C1.62245 24.0966 7.3164 29.5725 13.4051 29.6315C18.6784 29.6149 23.4594 25.5514 24.1128 20.5096C25.5876 20.0684 26.9374 19.1566 27.8777 17.9513C29.0486 16.4502 29.5378 14.569 29.2553 12.654ZM20.5377 24.7261C18.7576 26.7881 16.0246 28.069 13.4051 28.069C7.97791 28.001 3.35688 23.0967 4.36724 17.8023C5.39807 12.0884 11.6015 6.33852 13.4048 4.7704C15.2584 6.38065 21.7503 12.3611 22.5495 17.7776C22.9313 20.2152 22.2247 22.8143 20.5377 24.7261ZM24.2056 18.8229C24.1942 18.4012 24.1583 17.9764 24.0953 17.5495C23.6798 14.7335 21.9407 11.5484 18.9253 8.07675C20.0957 6.58196 21.3732 5.3781 22.0531 4.77519C23.4257 5.9906 27.2278 9.61711 27.7096 12.8821C28.1367 15.7776 26.3493 17.9501 24.2056 18.8229Z" fill="url(#paint2_linear_40001048_2732)"/>
<defs>
<linearGradient id="paint0_linear_40001048_2732" x1="16" y1="2.96484" x2="16" y2="29.6315" gradientUnits="userSpaceOnUse">
<stop stop-color="#FFA726"/>
<stop offset="1" stop-color="#FFBF62"/>
</linearGradient>
<linearGradient id="paint1_linear_40001048_2732" x1="16" y1="2.96484" x2="16" y2="29.6315" gradientUnits="userSpaceOnUse">
<stop stop-color="#FFA726"/>
<stop offset="1" stop-color="#FFBF62"/>
</linearGradient>
<linearGradient id="paint2_linear_40001048_2732" x1="16" y1="2.96484" x2="16" y2="29.6315" gradientUnits="userSpaceOnUse">
<stop stop-color="#FFA726"/>
<stop offset="1" stop-color="#FFBF62"/>
</linearGradient>
</defs>
</svg>
