<svg width="32" height="33" viewBox="0 0 32 33" fill="none" xmlns="http://www.w3.org/2000/svg">
<path d="M13.4403 11.5093C9.49408 11.5093 6.28361 14.7276 6.28361 18.6835C6.28361 22.6394 9.49413 25.8577 13.4403 25.8577C17.3865 25.8577 20.597 22.6394 20.597 18.6835C20.597 14.7276 17.3865 11.5093 13.4403 11.5093ZM13.4403 24.2952C10.3556 24.2952 7.84611 21.7778 7.84611 18.6835C7.84611 15.5892 10.3557 13.0718 13.4403 13.0718C16.525 13.0718 19.0345 15.5892 19.0345 18.6835C19.0345 21.7778 16.525 24.2952 13.4403 24.2952Z" fill="url(#paint0_linear_40001048_2232)"/>
<path d="M13.4403 15.0293C12.2047 15.0293 11.1996 16.0341 11.1996 17.2693V21.556C11.1996 21.9875 11.5494 22.3373 11.9808 22.3373C12.4123 22.3373 12.7621 21.9875 12.7621 21.556V20.1053H14.1185V21.556C14.1185 21.9875 14.4683 22.3373 14.8998 22.3373C15.3312 22.3373 15.681 21.9875 15.681 21.556V17.2693C15.681 16.0342 14.6758 15.0293 13.4403 15.0293ZM12.762 18.5428V17.2693C12.762 16.8957 13.0663 16.5918 13.4402 16.5918C13.8142 16.5918 14.1185 16.8957 14.1185 17.2693V18.5428H12.762Z" fill="url(#paint1_linear_40001048_2232)"/>
<path d="M29.2553 12.654C28.5798 8.0768 22.7916 3.33863 22.5455 3.1392C22.2594 2.90738 21.8504 2.9067 21.5637 3.13753C21.4768 3.20743 19.6142 4.71665 17.8639 6.89982C15.7793 4.67196 13.9808 3.20706 13.897 3.1392C13.6109 2.90722 13.2016 2.9067 12.9149 3.13779C12.8256 3.20972 10.7024 4.9293 8.39201 7.54862C5.25326 11.107 3.3818 14.4635 2.82951 17.5249C1.62238 24.0966 7.31633 29.5725 13.405 29.6315C18.6783 29.6149 23.4593 25.5514 24.1127 20.5096C25.5875 20.0684 26.9373 19.1566 27.8776 17.9513C29.0485 16.4502 29.5378 14.569 29.2553 12.654ZM20.5376 24.7261C18.7575 26.7881 16.0245 28.069 13.405 28.069C7.97784 28.001 3.3568 23.0967 4.36717 17.8023C5.398 12.0884 11.6014 6.33852 13.4047 4.7704C15.2584 6.38065 21.7502 12.3611 22.5494 17.7776C22.9312 20.2152 22.2246 22.8143 20.5376 24.7261ZM24.2055 18.8229C24.1942 18.4012 24.1582 17.9764 24.0952 17.5495C23.6797 14.7335 21.9406 11.5484 18.9252 8.07675C20.0956 6.58196 21.3731 5.3781 22.053 4.77519C23.4256 5.9906 27.2277 9.61711 27.7095 12.8821C28.1367 15.7776 26.3493 17.9501 24.2055 18.8229Z" fill="url(#paint2_linear_40001048_2232)"/>
<defs>
<linearGradient id="paint0_linear_40001048_2232" x1="15.9999" y1="2.96484" x2="15.9999" y2="29.6315" gradientUnits="userSpaceOnUse">
<stop stop-color="#FFA726"/>
<stop offset="1" stop-color="#BD7E21"/>
</linearGradient>
<linearGradient id="paint1_linear_40001048_2232" x1="15.9999" y1="2.96484" x2="15.9999" y2="29.6315" gradientUnits="userSpaceOnUse">
<stop stop-color="#FFA726"/>
<stop offset="1" stop-color="#BD7E21"/>
</linearGradient>
<linearGradient id="paint2_linear_40001048_2232" x1="15.9999" y1="2.96484" x2="15.9999" y2="29.6315" gradientUnits="userSpaceOnUse">
<stop stop-color="#FFA726"/>
<stop offset="1" stop-color="#BD7E21"/>
</linearGradient>
</defs>
</svg>
