<svg width="32" height="33" viewBox="0 0 32 33" fill="none" xmlns="http://www.w3.org/2000/svg">
<path d="M16.7826 18.6406C17.214 18.6406 17.5638 18.2909 17.5638 17.8594C17.5638 17.428 17.214 17.0782 16.7826 17.0782C16.3511 17.0782 16.0014 17.428 16.0014 17.8594C16.0014 18.2909 16.3511 18.6406 16.7826 18.6406Z" fill="url(#paint0_linear_40001048_3311)"/>
<path d="M13.6578 21.7656C14.0893 21.7656 14.439 21.4159 14.439 20.9844C14.439 20.553 14.0893 20.2032 13.6578 20.2032C13.2264 20.2032 12.8766 20.553 12.8766 20.9844C12.8766 21.4159 13.2264 21.7656 13.6578 21.7656Z" fill="url(#paint1_linear_40001048_3311)"/>
<path d="M6.6274 18.6406C7.05885 18.6406 7.4086 18.2909 7.4086 17.8594C7.4086 17.428 7.05885 17.0782 6.6274 17.0782C6.19596 17.0782 5.84621 17.428 5.84621 17.8594C5.84621 18.2909 6.19596 18.6406 6.6274 18.6406Z" fill="url(#paint2_linear_40001048_3311)"/>
<path d="M9.75213 14.7344C10.1836 14.7344 10.5333 14.3846 10.5333 13.9532C10.5333 13.5217 10.1836 13.172 9.75213 13.172C9.32069 13.172 8.97093 13.5217 8.97093 13.9532C8.97093 14.3846 9.32069 14.7344 9.75213 14.7344Z" fill="url(#paint3_linear_40001048_3311)"/>
<path d="M16.7826 9.26562C17.214 9.26562 17.5638 8.91587 17.5638 8.48443C17.5638 8.05298 17.214 7.70323 16.7826 7.70323C16.3511 7.70323 16.0014 8.05298 16.0014 8.48443C16.0014 8.91587 16.3511 9.26562 16.7826 9.26562Z" fill="url(#paint4_linear_40001048_3311)"/>
<path d="M20.6885 12.3906C21.12 12.3906 21.4697 12.0409 21.4697 11.6094C21.4697 11.178 21.12 10.8282 20.6885 10.8282C20.2571 10.8282 19.9073 11.178 19.9073 11.6094C19.9073 12.0409 20.2571 12.3906 20.6885 12.3906Z" fill="url(#paint5_linear_40001048_3311)"/>
<path d="M14.4391 12.3906C14.8705 12.3906 15.2203 12.0409 15.2203 11.6094C15.2203 11.178 14.8705 10.8282 14.4391 10.8282C14.0076 10.8282 13.6579 11.178 13.6579 11.6094C13.6579 12.0409 14.0076 12.3906 14.4391 12.3906Z" fill="url(#paint6_linear_40001048_3311)"/>
<path d="M17.5638 24.1094C17.9952 24.1094 18.345 23.7596 18.345 23.3282C18.345 22.8967 17.9952 22.547 17.5638 22.547C17.1324 22.547 16.7826 22.8967 16.7826 23.3282C16.7826 23.7596 17.1324 24.1094 17.5638 24.1094Z" fill="url(#paint7_linear_40001048_3311)"/>
<path d="M19.9073 20.9844C20.3387 20.9844 20.6885 20.6346 20.6885 20.2032C20.6885 19.7717 20.3387 19.422 19.9073 19.422C19.4758 19.422 19.1261 19.7717 19.1261 20.2032C19.1261 20.6346 19.4758 20.9844 19.9073 20.9844Z" fill="url(#paint8_linear_40001048_3311)"/>
<path d="M23.032 24.1094C23.4634 24.1094 23.8132 23.7596 23.8132 23.3282C23.8132 22.8967 23.4634 22.547 23.032 22.547C22.6006 22.547 22.2508 22.8967 22.2508 23.3282C22.2508 23.7596 22.6006 24.1094 23.032 24.1094Z" fill="url(#paint9_linear_40001048_3311)"/>
<path d="M24.5942 20.2031C25.0257 20.2031 25.3754 19.8534 25.3754 19.4219C25.3754 18.9905 25.0257 18.6407 24.5942 18.6407C24.1628 18.6407 23.813 18.9905 23.813 19.4219C23.813 19.8534 24.1628 20.2031 24.5942 20.2031Z" fill="url(#paint10_linear_40001048_3311)"/>
<path d="M24.0211 14.8057C25.2264 12.6099 25.4916 9.86067 24.1607 7.71598C22.1157 4.42234 17.4749 3.59094 13.8158 5.86281C12.8472 6.46401 12.0797 7.18916 11.4694 8.07963C10.9637 8.81739 10.2093 9.36968 9.34531 9.63468C6.42901 10.5294 3.97157 12.6478 3.03641 15.5098C1.52407 20.1379 4.82115 24.3177 9.83135 24.1097C11.5899 27.1234 15.6949 28.0157 19.1782 28.0157C22.0338 28.0157 24.4646 27.464 26.2078 26.4204C28.2526 25.1962 29.3334 23.3165 29.3334 20.9845C29.3333 17.3889 27.3991 15.7047 24.0211 14.8057ZM4.52141 15.9951C5.29459 13.629 7.36349 11.877 9.80343 11.1285C11.004 10.7603 12.0533 9.99124 12.758 8.96312C13.2434 8.25489 13.8589 7.6751 14.6397 7.19036C17.5671 5.37291 21.2427 5.97838 22.8333 8.54015C23.8332 10.1513 23.6593 12.4902 22.4194 14.4469C21.4403 14.2609 20.3877 14.1095 19.2827 13.9602C13.6146 13.1942 9.02297 16.2972 9.02297 20.9844C9.02297 21.5317 9.08474 22.0542 9.20521 22.5499C5.58229 22.4097 3.4136 19.3854 4.52141 15.9951ZM19.1782 26.4531C17.1624 26.4531 10.5854 26.0588 10.5854 20.9844C10.5854 17.1689 14.4919 14.8895 19.0736 15.5086C25.1208 16.3259 27.771 17.0909 27.771 20.9844C27.771 25.1671 23.3418 26.4531 19.1782 26.4531Z" fill="url(#paint11_linear_40001048_3311)"/>
<defs>
<linearGradient id="paint0_linear_40001048_3311" x1="16" y1="4.58203" x2="16" y2="28.0157" gradientUnits="userSpaceOnUse">
<stop stop-color="#FFA726"/>
<stop offset="1" stop-color="#FFBF62"/>
</linearGradient>
<linearGradient id="paint1_linear_40001048_3311" x1="16" y1="4.58203" x2="16" y2="28.0157" gradientUnits="userSpaceOnUse">
<stop stop-color="#FFA726"/>
<stop offset="1" stop-color="#FFBF62"/>
</linearGradient>
<linearGradient id="paint2_linear_40001048_3311" x1="16" y1="4.58203" x2="16" y2="28.0157" gradientUnits="userSpaceOnUse">
<stop stop-color="#FFA726"/>
<stop offset="1" stop-color="#FFBF62"/>
</linearGradient>
<linearGradient id="paint3_linear_40001048_3311" x1="16" y1="4.58203" x2="16" y2="28.0157" gradientUnits="userSpaceOnUse">
<stop stop-color="#FFA726"/>
<stop offset="1" stop-color="#FFBF62"/>
</linearGradient>
<linearGradient id="paint4_linear_40001048_3311" x1="16" y1="4.58203" x2="16" y2="28.0157" gradientUnits="userSpaceOnUse">
<stop stop-color="#FFA726"/>
<stop offset="1" stop-color="#FFBF62"/>
</linearGradient>
<linearGradient id="paint5_linear_40001048_3311" x1="16" y1="4.58203" x2="16" y2="28.0157" gradientUnits="userSpaceOnUse">
<stop stop-color="#FFA726"/>
<stop offset="1" stop-color="#FFBF62"/>
</linearGradient>
<linearGradient id="paint6_linear_40001048_3311" x1="16" y1="4.58203" x2="16" y2="28.0157" gradientUnits="userSpaceOnUse">
<stop stop-color="#FFA726"/>
<stop offset="1" stop-color="#FFBF62"/>
</linearGradient>
<linearGradient id="paint7_linear_40001048_3311" x1="16" y1="4.58203" x2="16" y2="28.0157" gradientUnits="userSpaceOnUse">
<stop stop-color="#FFA726"/>
<stop offset="1" stop-color="#FFBF62"/>
</linearGradient>
<linearGradient id="paint8_linear_40001048_3311" x1="16" y1="4.58203" x2="16" y2="28.0157" gradientUnits="userSpaceOnUse">
<stop stop-color="#FFA726"/>
<stop offset="1" stop-color="#FFBF62"/>
</linearGradient>
<linearGradient id="paint9_linear_40001048_3311" x1="16" y1="4.58203" x2="16" y2="28.0157" gradientUnits="userSpaceOnUse">
<stop stop-color="#FFA726"/>
<stop offset="1" stop-color="#FFBF62"/>
</linearGradient>
<linearGradient id="paint10_linear_40001048_3311" x1="16" y1="4.58203" x2="16" y2="28.0157" gradientUnits="userSpaceOnUse">
<stop stop-color="#FFA726"/>
<stop offset="1" stop-color="#FFBF62"/>
</linearGradient>
<linearGradient id="paint11_linear_40001048_3311" x1="16" y1="4.58203" x2="16" y2="28.0157" gradientUnits="userSpaceOnUse">
<stop stop-color="#FFA726"/>
<stop offset="1" stop-color="#FFBF62"/>
</linearGradient>
</defs>
</svg>
