<svg width="32" height="33" viewBox="0 0 32 33" fill="none" xmlns="http://www.w3.org/2000/svg">
<path d="M16.7824 18.6406C17.2138 18.6406 17.5636 18.2909 17.5636 17.8594C17.5636 17.428 17.2138 17.0782 16.7824 17.0782C16.3509 17.0782 16.0012 17.428 16.0012 17.8594C16.0012 18.2909 16.3509 18.6406 16.7824 18.6406Z" fill="url(#paint0_linear_40001048_2209)"/>
<path d="M13.6576 21.7656C14.0891 21.7656 14.4388 21.4159 14.4388 20.9844C14.4388 20.553 14.0891 20.2032 13.6576 20.2032C13.2262 20.2032 12.8765 20.553 12.8765 20.9844C12.8765 21.4159 13.2262 21.7656 13.6576 21.7656Z" fill="url(#paint1_linear_40001048_2209)"/>
<path d="M6.62722 18.6406C7.05866 18.6406 7.40842 18.2909 7.40842 17.8594C7.40842 17.428 7.05866 17.0782 6.62722 17.0782C6.19578 17.0782 5.84602 17.428 5.84602 17.8594C5.84602 18.2909 6.19578 18.6406 6.62722 18.6406Z" fill="url(#paint2_linear_40001048_2209)"/>
<path d="M9.75195 14.7344C10.1834 14.7344 10.5331 14.3846 10.5331 13.9532C10.5331 13.5217 10.1834 13.172 9.75195 13.172C9.3205 13.172 8.97075 13.5217 8.97075 13.9532C8.97075 14.3846 9.3205 14.7344 9.75195 14.7344Z" fill="url(#paint3_linear_40001048_2209)"/>
<path d="M16.7824 9.26562C17.2138 9.26562 17.5636 8.91587 17.5636 8.48443C17.5636 8.05298 17.2138 7.70323 16.7824 7.70323C16.3509 7.70323 16.0012 8.05298 16.0012 8.48443C16.0012 8.91587 16.3509 9.26562 16.7824 9.26562Z" fill="url(#paint4_linear_40001048_2209)"/>
<path d="M20.6883 12.3906C21.1198 12.3906 21.4695 12.0409 21.4695 11.6094C21.4695 11.178 21.1198 10.8282 20.6883 10.8282C20.2569 10.8282 19.9072 11.178 19.9072 11.6094C19.9072 12.0409 20.2569 12.3906 20.6883 12.3906Z" fill="url(#paint5_linear_40001048_2209)"/>
<path d="M14.4389 12.3906C14.8703 12.3906 15.2201 12.0409 15.2201 11.6094C15.2201 11.178 14.8703 10.8282 14.4389 10.8282C14.0075 10.8282 13.6577 11.178 13.6577 11.6094C13.6577 12.0409 14.0075 12.3906 14.4389 12.3906Z" fill="url(#paint6_linear_40001048_2209)"/>
<path d="M17.5636 24.1094C17.9951 24.1094 18.3448 23.7596 18.3448 23.3282C18.3448 22.8967 17.9951 22.547 17.5636 22.547C17.1322 22.547 16.7824 22.8967 16.7824 23.3282C16.7824 23.7596 17.1322 24.1094 17.5636 24.1094Z" fill="url(#paint7_linear_40001048_2209)"/>
<path d="M19.9071 20.9844C20.3385 20.9844 20.6883 20.6346 20.6883 20.2032C20.6883 19.7717 20.3385 19.422 19.9071 19.422C19.4757 19.422 19.1259 19.7717 19.1259 20.2032C19.1259 20.6346 19.4757 20.9844 19.9071 20.9844Z" fill="url(#paint8_linear_40001048_2209)"/>
<path d="M23.0318 24.1094C23.4633 24.1094 23.813 23.7596 23.813 23.3282C23.813 22.8967 23.4633 22.547 23.0318 22.547C22.6004 22.547 22.2506 22.8967 22.2506 23.3282C22.2506 23.7596 22.6004 24.1094 23.0318 24.1094Z" fill="url(#paint9_linear_40001048_2209)"/>
<path d="M24.5941 20.2031C25.0255 20.2031 25.3752 19.8534 25.3752 19.4219C25.3752 18.9905 25.0255 18.6407 24.5941 18.6407C24.1626 18.6407 23.8129 18.9905 23.8129 19.4219C23.8129 19.8534 24.1626 20.2031 24.5941 20.2031Z" fill="url(#paint10_linear_40001048_2209)"/>
<path d="M24.0209 14.8057C25.2263 12.6099 25.4914 9.86067 24.1605 7.71598C22.1155 4.42234 17.4748 3.59094 13.8156 5.86281C12.847 6.46401 12.0795 7.18916 11.4692 8.07963C10.9635 8.81739 10.2091 9.36968 9.34513 9.63468C6.42883 10.5294 3.97138 12.6478 3.03623 15.5098C1.52389 20.1379 4.82097 24.3177 9.83117 24.1097C11.5897 27.1234 15.6948 28.0157 19.178 28.0157C22.0337 28.0157 24.4644 27.464 26.2077 26.4204C28.2524 25.1962 29.3332 23.3165 29.3332 20.9845C29.3331 17.3889 27.3989 15.7047 24.0209 14.8057ZM4.52123 15.9951C5.2944 13.629 7.36331 11.877 9.80325 11.1285C11.0038 10.7603 12.0531 9.99124 12.7578 8.96312C13.2432 8.25489 13.8587 7.6751 14.6395 7.19036C17.5669 5.37291 21.2426 5.97838 22.8331 8.54015C23.833 10.1513 23.6591 12.4902 22.4192 14.4469C21.4401 14.2609 20.3876 14.1095 19.2826 13.9602C13.6144 13.1942 9.02278 16.2972 9.02278 20.9844C9.02278 21.5317 9.08455 22.0542 9.20502 22.5499C5.58211 22.4097 3.41342 19.3854 4.52123 15.9951ZM19.178 26.4531C17.1622 26.4531 10.5852 26.0588 10.5852 20.9844C10.5852 17.1689 14.4917 14.8895 19.0734 15.5086C25.1206 16.3259 27.7708 17.0909 27.7708 20.9844C27.7708 25.1671 23.3416 26.4531 19.178 26.4531Z" fill="url(#paint11_linear_40001048_2209)"/>
<defs>
<linearGradient id="paint0_linear_40001048_2209" x1="15.9998" y1="4.58203" x2="15.9998" y2="28.0157" gradientUnits="userSpaceOnUse">
<stop stop-color="#FFA726"/>
<stop offset="1" stop-color="#BD7E21"/>
</linearGradient>
<linearGradient id="paint1_linear_40001048_2209" x1="15.9998" y1="4.58203" x2="15.9998" y2="28.0157" gradientUnits="userSpaceOnUse">
<stop stop-color="#FFA726"/>
<stop offset="1" stop-color="#BD7E21"/>
</linearGradient>
<linearGradient id="paint2_linear_40001048_2209" x1="15.9998" y1="4.58203" x2="15.9998" y2="28.0157" gradientUnits="userSpaceOnUse">
<stop stop-color="#FFA726"/>
<stop offset="1" stop-color="#BD7E21"/>
</linearGradient>
<linearGradient id="paint3_linear_40001048_2209" x1="15.9998" y1="4.58203" x2="15.9998" y2="28.0157" gradientUnits="userSpaceOnUse">
<stop stop-color="#FFA726"/>
<stop offset="1" stop-color="#BD7E21"/>
</linearGradient>
<linearGradient id="paint4_linear_40001048_2209" x1="15.9998" y1="4.58203" x2="15.9998" y2="28.0157" gradientUnits="userSpaceOnUse">
<stop stop-color="#FFA726"/>
<stop offset="1" stop-color="#BD7E21"/>
</linearGradient>
<linearGradient id="paint5_linear_40001048_2209" x1="15.9998" y1="4.58203" x2="15.9998" y2="28.0157" gradientUnits="userSpaceOnUse">
<stop stop-color="#FFA726"/>
<stop offset="1" stop-color="#BD7E21"/>
</linearGradient>
<linearGradient id="paint6_linear_40001048_2209" x1="15.9998" y1="4.58203" x2="15.9998" y2="28.0157" gradientUnits="userSpaceOnUse">
<stop stop-color="#FFA726"/>
<stop offset="1" stop-color="#BD7E21"/>
</linearGradient>
<linearGradient id="paint7_linear_40001048_2209" x1="15.9998" y1="4.58203" x2="15.9998" y2="28.0157" gradientUnits="userSpaceOnUse">
<stop stop-color="#FFA726"/>
<stop offset="1" stop-color="#BD7E21"/>
</linearGradient>
<linearGradient id="paint8_linear_40001048_2209" x1="15.9998" y1="4.58203" x2="15.9998" y2="28.0157" gradientUnits="userSpaceOnUse">
<stop stop-color="#FFA726"/>
<stop offset="1" stop-color="#BD7E21"/>
</linearGradient>
<linearGradient id="paint9_linear_40001048_2209" x1="15.9998" y1="4.58203" x2="15.9998" y2="28.0157" gradientUnits="userSpaceOnUse">
<stop stop-color="#FFA726"/>
<stop offset="1" stop-color="#BD7E21"/>
</linearGradient>
<linearGradient id="paint10_linear_40001048_2209" x1="15.9998" y1="4.58203" x2="15.9998" y2="28.0157" gradientUnits="userSpaceOnUse">
<stop stop-color="#FFA726"/>
<stop offset="1" stop-color="#BD7E21"/>
</linearGradient>
<linearGradient id="paint11_linear_40001048_2209" x1="15.9998" y1="4.58203" x2="15.9998" y2="28.0157" gradientUnits="userSpaceOnUse">
<stop stop-color="#FFA726"/>
<stop offset="1" stop-color="#BD7E21"/>
</linearGradient>
</defs>
</svg>
